<?xml version="1.0" encoding="UTF-8"?>
<svg id="_Слой_1" data-name="Слой 1" xmlns="http://www.w3.org/2000/svg" xmlns:xlink="http://www.w3.org/1999/xlink" viewBox="0 0 1711.34 1045.12">
  <defs>
    <style>
      .cls-1 {
        fill: url(#_Безымянный_градиент_164);
      }
    </style>
    <linearGradient id="_Безымянный_градиент_164" data-name="Безымянный градиент 164" x1="0" y1="522.56" x2="1711.34" y2="522.56" gradientUnits="userSpaceOnUse">
      <stop offset=".01" stop-color="#8e3f1c"/>
      <stop offset=".22" stop-color="#ab6325"/>
      <stop offset=".44" stop-color="#c4852e"/>
      <stop offset=".59" stop-color="#d6a647"/>
      <stop offset=".7" stop-color="#b67b2b"/>
      <stop offset=".88" stop-color="#a15f24"/>
      <stop offset="1" stop-color="#84481b"/>
    </linearGradient>
  </defs>
  <path class="cls-1" d="M1627.68,833.64c.62-19.23-5.89-35.58-14.74-37.76,.89-.23,1.82-.32,2.74-.24,9.53,.8,16.74,17.81,16.08,38-.65,20.18-8.9,35.89-18.43,35.09-.45-.04-.89-.12-1.33-.24,8.31-2.09,15.09-16.65,15.68-34.85Zm-197.19-9.54c-1.11-.09-2.18,.01-3.24,.27,6.81,1.69,12.45,10.49,15.33,22.72,1.29,5.43,2.02,11.52,2.06,17.97,.02,1.24,.01,2.5-.03,3.77-.69,21.44-8.67,38.59-18.46,41.03,.52,.14,1.04,.23,1.57,.27,9.43,.8,17.8-12.14,20.67-30.39,.55-3.46,.9-7.13,1.03-10.92,.45-13.84-2.24-26.42-6.8-34.7-3.25-5.92-7.44-9.63-12.13-10.03Zm98.14-16.67c-1.04-.08-2.06,.01-3.08,.26,5.47,1.35,10.13,7.51,13.1,16.38,2.43,7.22,3.72,16.23,3.42,25.9-.06,1.68-.16,3.34-.3,4.95-1.61,18.03-8.71,31.93-17.25,34.08,.49,.11,.98,.21,1.49,.26,8.14,.68,15.45-9.41,18.78-24.29,1.03-4.6,1.68-9.67,1.85-15,.45-14.08-2.5-26.77-7.39-34.56-2.93-4.71-6.59-7.64-10.61-7.97Zm182.7-372.19C1266.19,323.08,821.05,210.92,375.91,98.76c7.01,23.53,14.02,47.07,21.03,70.6,438.13,105.15,876.27,210.3,1314.4,315.46v7.51c-431.62-82.62-863.25-165.24-1294.87-247.86,9.01,29.54,18.03,59.08,27.04,88.63,422.61,70.1,845.22,140.2,1267.83,210.3v7.51c-415.6-49.07-831.2-98.14-1246.8-147.21,11.02,36.55,22.03,73.11,33.05,109.66,404.58,29.04,809.17,58.08,1213.75,87.13v7.51c-396.57-4.51-793.14-9.01-1189.72-13.52,8.01,27.54,16.02,55.08,24.03,82.62,388.56-9.01,777.12-18.03,1165.68-27.04v40.56c-15.78,.6-31.56,1.19-47.34,1.79-23.27,8.41-46.55,16.83-69.82,25.26-4.71,12.46-9.44,24.93-14.16,37.39,1.18-.15,2.37-.23,3.58-.23,.82,0,1.65,.05,2.46,.11,.08,.01,.16,.02,.24,.02,.08,.01,.15,.02,.23,.02,.08,.01,.16,.01,.24,.02s.16,.01,.24,.02c.08,.01,.15,.01,.23,.02,.08,0,.16,.01,.24,.02,.08,0,.16,.01,.24,.02,.08,0,.15,.01,.23,.02,.08,0,.16,.01,.24,.02,.08,0,.16,.01,.24,.01,.08,.01,.16,.02,.24,.02,.07,.01,.15,.02,.23,.02,.08,.01,.16,.02,.24,.02,.08,.01,.16,.01,.22,.02,.08,.01,.16,.01,.24,.02,.08,.01,.16,.01,.24,.02,.08,0,.16,.01,.24,.02,.07,0,.15,.01,.23,.02,.08,0,.16,.01,.24,.02,.08,0,.16,.01,.24,.02,.08,0,.15,.01,.23,.01,.08,.01,.16,.02,.24,.02,.08,.01,.16,.02,.24,.02,.08,.01,.15,.02,.23,.02,.08,.01,.16,.01,.24,.02,.08,.01,.16,.01,.24,.02s.16,.01,.23,.02c.08,0,.16,.01,.24,.02,.08,0,.16,.01,.24,.02,.08,0,.16,.01,.24,.02,.07,0,.15,.01,.23,.02,.08,0,.16,.01,.24,.01,.08,.01,.16,.02,.23,.02,.08,.01,.16,.02,.24,.02,.08,.01,.16,.02,.24,.02,.08,.01,.16,.01,.24,.02,.08,.01,.15,.01,.23,.02s.16,.01,.24,.02c.08,0,.16,.01,.24,.02,.08,0,.15,.01,.23,.02,.08,0,.16,.01,.24,.02,.08,0,.16,.01,.24,.02,.08,0,.15,.01,.23,.01,.08,.01,.16,.02,.24,.02,.08,.01,.16,.02,.24,.02,.08,.01,.16,.02,.23,.02,.08,.01,.16,.01,.24,.02,.08,.01,.16,.01,.24,.02,.08,.01,.16,.01,.24,.02,.07,0,.15,.01,.23,.02,.08,0,.16,.01,.24,.02,.08,0,.16,.01,.23,.02,.08,0,.16,.01,.24,.02,.08,0,.16,.01,.24,.01,.08,.01,.16,.02,.24,.02,.07,.01,.15,.02,.23,.02,.08,.01,.16,.01,.24,.02s.16,.01,.24,.02c.08,.01,.15,.01,.23,.02s.16,.01,.24,.02c.08,0,.16,.01,.24,.02,.08,0,.15,.01,.23,.02,.08,0,.16,.01,.24,.02,.08,0,.16,.01,.24,.02,.08,0,.16,.01,.23,.01,.08,.01,.16,.02,.24,.02,.08,.01,.16,.02,.24,.02,.08,.01,.16,.01,.23,.02,.08,.01,.16,.01,.24,.02s.16,.01,.24,.02c.08,.01,.16,.01,.24,.02,.07,0,.15,.01,.23,.02,.08,0,.16,.01,.24,.02,.08,0,.16,.01,.24,.02,.08,0,.15,.01,.23,.01,.08,.01,.16,.02,.24,.02,.08,.01,.16,.02,.24,.02,.08,.01,.15,.02,.23,.02,.08,.01,.16,.01,.24,.02s.16,.01,.24,.02c.08,.01,.15,.01,.23,.02,.08,.01,.16,.01,.24,.02,.08,0,.16,.01,.24,.02,.08,0,.16,.01,.23,.02,.08,0,.16,.01,.24,.02,.08,0,.16,.01,.24,.01,.08,.01,.16,.02,.23,.02,.08,.01,.16,.02,.24,.02,.08,.01,.16,.02,.24,.02,.08,.01,.16,.01,.24,.02,.07,.01,.15,.01,.23,.02,.08,.01,.16,.01,.24,.02s.16,.01,.24,.02c.07,0,.15,.01,.23,.02,.08,0,.16,.01,.24,.02,.08,0,.16,.01,.24,.02,.08,0,.15,.01,.23,.01,.08,.01,.16,.02,.24,.02,.08,.01,.16,.02,.24,.02,.08,.01,.16,.01,.23,.02,.08,.01,.16,.01,.24,.02s.16,.01,.24,.02c.08,.01,.16,.01,.23,.02,.08,.01,.16,.01,.24,.02,.08,0,.16,.01,.24,.02,.08,0,.16,.01,.23,.02,.08,0,.16,.01,.24,.02,.08,0,.16,.01,.24,.01,.08,.01,.16,.02,.24,.02,.07,.01,.15,.02,.23,.02,.08,.01,.16,.01,.24,.02s.16,.01,.24,.02c.07,.01,.15,.01,.23,.02,.08,0,.16,.01,.24,.02,19.99,1.6,35.93,33.69,35.93,73.03s-16.78,73.11-37.49,73.11c-.77,0-1.52-.05-2.27-.14h-.03c-.07,0-.14-.01-.2-.02-.08,0-.16-.01-.24-.02-.09,0-.17-.01-.25-.02-.08,0-.16-.01-.24-.01-.08-.01-.16-.02-.25-.02-.08-.01-.16-.02-.24-.02-.08-.01-.16-.01-.24-.02s-.16-.01-.24-.02c-.09-.01-.17-.01-.25-.02s-.16-.01-.24-.02-.16-.01-.25-.02c-.08,0-.16-.01-.24-.02-.08,0-.16-.01-.24-.02-.08,0-.16-.01-.25-.02-.08,0-.16-.01-.24-.01-.08-.01-.16-.02-.24-.02-.08-.01-.16-.02-.25-.02-.08-.01-.16-.01-.24-.02s-.16-.01-.24-.02c-.08-.01-.16-.01-.25-.02-.08-.01-.16-.01-.24-.02-.08-.01-.16-.01-.24-.02-.08,0-.16-.01-.25-.02-.08,0-.16-.01-.24-.02-.08,0-.16-.01-.24-.02-.08,0-.17-.01-.25-.01-.08-.01-.16-.02-.24-.02-.08-.01-.16-.02-.24-.02-.08-.01-.17-.02-.25-.02-.08-.01-.16-.01-.24-.02-.08-.01-.16-.01-.24-.02s-.17-.01-.25-.02-.16-.01-.24-.02c-.08-.01-.16-.01-.24-.02-.08,0-.17-.01-.25-.02-.08,0-.16-.01-.24-.02-.08,0-.16-.01-.24-.02-.08,0-.17-.01-.25-.01-.08-.01-.16-.02-.24-.02-.08-.01-.16-.02-.24-.02-.09-.01-.17-.01-.25-.02s-.16-.01-.24-.02-.16-.01-.24-.02c-.09-.01-.17-.01-.25-.02-.08-.01-.16-.01-.24-.02-.08,0-.16-.01-.24-.02-.09,0-.17-.01-.25-.02-.08,0-.16-.01-.24-.02-.08,0-.16-.01-.25-.01-.08-.01-.16-.02-.24-.02-.08-.01-.16-.02-.24-.02-.08-.01-.16-.02-.24-.02-.09-.01-.17-.01-.25-.02s-.16-.01-.24-.02-.16-.01-.25-.02c-.08-.01-.16-.01-.24-.02-.08,0-.16-.01-.24-.02-.08,0-.16-.01-.24-.02-.09,0-.17-.01-.25-.02-.08,0-.16-.01-.24-.02-.08,0-.16-.01-.25-.01-.08-.01-.16-.02-.24-.02-.08-.01-.16-.02-.24-.02-.08-.01-.16-.01-.25-.02-.08-.01-.16-.01-.24-.02-.08-.01-.16-.01-.24-.02-.08-.01-.17-.01-.25-.02s-.16-.01-.24-.02c-.08,0-.16-.01-.24-.02-.08,0-.17-.01-.25-.02-.08,0-.16-.01-.24-.02-.08,0-.16-.01-.24-.01-.08-.01-.17-.02-.25-.02-.08-.01-.16-.02-.24-.02-.08-.01-.16-.02-.24-.02-.08-.01-.17-.01-.25-.02-.08-.01-.16-.01-.24-.02-.08-.01-.16-.01-.24-.02s-.17-.01-.25-.02c-.08,0-.16-.01-.24-.02-.08,0-.16-.01-.24-.02-.08,0-.17-.01-.25-.02-.08,0-.16-.01-.24-.01-.08-.01-.16-.02-.24-.02-.09-.01-.17-.02-.25-.02-.08-.01-.16-.02-.24-.02-.08-.01-.16-.02-.24-.02-.09-.01-.17-.01-.25-.02-.08-.01-.16-.01-.24-.02s-.16-.01-.24-.02c-.09,0-.17-.01-.25-.02-.08,0-.16-.01-.24-.02-.08,0-.16-.01-.24-.02-.09,0-.17-.01-.25-.02-.08,0-.16-.01-.24-.01-.08-.01-.16-.02-.25-.02-.08-.01-.16-.02-.24-.02-.08-.01-.16-.02-.24-.02-.08-.01-.16-.01-.24-.02-.09-.01-.17-.01-.25-.02s-.16-.01-.24-.02c-.08,0-.16-.01-.24-.02-.09,0-.17-.01-.25-.02-.08,0-.16-.01-.24-.02-.08,0-.16-.01-.25-.02-.08,0-.16-.01-.24-.01-.08-.01-.16-.02-.24-.02-.08-.01-.16-.02-.25-.02-.08-.01-.16-.02-.24-.02-.08-.01-.16-.02-.24-.02-.08-.01-.16-.01-.25-.02-.08-.01-.16-.01-.24-.02s-.16-.01-.24-.02c-.08,0-.16-.01-.25-.02-7.96-.62-15.39-4.61-21.71-11.11-7.6,22.09-20.54,36.61-35.2,36.61-.73,0-1.45-.03-2.18-.11-.06,0-.1,0-.14-.01-.09,0-.18-.01-.26-.02-.09-.01-.18-.01-.27-.02-.09-.01-.18-.01-.27-.02-.09-.01-.18-.02-.27-.02-.09-.01-.18-.02-.27-.03-.09,0-.18-.01-.28-.02-.09-.01-.18-.01-.27-.02-.09-.01-.18-.01-.27-.02s-.18-.01-.27-.02-.18-.02-.27-.02c-.09-.01-.18-.02-.27-.03-.09,0-.18-.01-.27-.02s-.18-.01-.27-.02c-.1-.01-.19-.01-.28-.02-.09-.01-.18-.01-.27-.02s-.18-.02-.27-.02c-.09-.01-.18-.02-.27-.03-.09,0-.18-.01-.27-.02-.09,0-.18-.01-.27-.02-.09-.01-.18-.01-.27-.02-.1-.01-.19-.01-.28-.02-.09-.01-.18-.02-.27-.02l-.27-.03c-.09,0-.18-.01-.27-.02-.09,0-.18-.01-.27-.02s-.18-.01-.27-.02c-.09-.01-.18-.01-.28-.02-.09-.01-.18-.02-.27-.02l-.27-.03c-.09,0-.18-.01-.27-.02-.09,0-.18-.01-.27-.02s-.18-.01-.27-.02c-.09-.01-.18-.01-.27-.02s-.18-.02-.27-.02c-.1-.01-.19-.02-.28-.03-.09,0-.18-.01-.27-.02-.09,0-.18-.01-.27-.02s-.18-.01-.27-.02c-.09-.01-.18-.01-.27-.02-.09-.01-.18-.02-.27-.02-.09-.01-.18-.02-.28-.03-.09,0-.18-.01-.27-.02-.09,0-.18-.01-.27-.02s-.18-.01-.27-.02-.18-.01-.27-.02-.18-.02-.27-.02c-.09-.01-.18-.02-.27-.03-.09,0-.18-.01-.28-.02-.09,0-.18-.01-.27-.02-.09-.01-.18-.01-.27-.02s-.18-.01-.27-.02c-.09-.01-.18-.02-.27-.02-.09-.01-.18-.02-.27-.03-.09,0-.18-.01-.27-.02-.09,0-.18-.01-.27-.02-.1-.01-.19-.01-.28-.02s-.18-.01-.27-.02c-.09-.01-.18-.02-.27-.02-.09-.01-.18-.02-.27-.02-.09-.01-.18-.02-.27-.03-.09,0-.18-.01-.27-.02-.09,0-.18-.01-.28-.02-.09-.01-.18-.01-.27-.02s-.18-.02-.27-.02c-.09-.01-.18-.02-.27-.02-.09-.01-.18-.02-.27-.03-.09,0-.18-.01-.27-.02-.09,0-.18-.01-.27-.02-.09-.01-.18-.01-.27-.02-.1-.01-.19-.02-.28-.02-.09-.01-.18-.02-.27-.02-.09-.01-.18-.02-.27-.03-.09,0-.18-.01-.27-.02-.09,0-.18-.01-.27-.02-.09-.01-.18-.01-.27-.02s-.18-.02-.27-.02c-.1-.01-.19-.02-.28-.02l-.27-.03c-.09,0-.18-.01-.27-.02-.09,0-.18-.01-.27-.02s-.18-.01-.27-.02c-.09-.01-.18-.02-.27-.02-.09-.01-.18-.02-.28-.02-.09-.01-.18-.02-.27-.03-.09,0-.18-.01-.27-.02-.09,0-.18-.01-.27-.02s-.18-.01-.27-.02c-.09-.01-.18-.01-.27-.02s-.18-.02-.27-.02c-.09-.01-.18-.02-.27-.03-.1,0-.19-.01-.28-.02-.09,0-.18-.01-.27-.02s-.18-.01-.27-.02-.18-.01-.27-.02c-.09-.01-.18-.02-.27-.02-.09-.01-.18-.02-.27-.03-.09,0-.19-.01-.28-.02-.09,0-.18-.01-.27-.02s-.18-.01-.27-.02-.18-.01-.27-.02c-.09-.01-.18-.02-.27-.02l-.27-.03c-.09,0-.18-.01-.27-.02-.09,0-.18-.01-.28-.02-.09,0-.18-.01-.27-.02s-.18-.01-.27-.02c-.09-.01-.18-.02-.27-.02l-.27-.03c-.09,0-.18-.01-.27-.02-.09,0-.18-.01-.27-.02-.09,0-.18-.01-.27-.02-.1-.01-.19-.01-.28-.02s-.18-.02-.27-.02c-.09-.01-.18-.02-.27-.02-.09-.01-.18-.02-.27-.03-9.7-.77-18.69-5.94-26.22-14.32-7.87,25.64-22.25,42.79-38.69,42.79-.5,0-.99-.01-1.48-.06-.03,.01-.08,0-.11-.01-.33-.01-.65-.03-.98-.08-.06,0-.1,0-.16-.01-.09-.01-.19-.01-.29-.02-.09-.01-.19-.02-.28-.02-.1-.01-.19-.02-.29-.03-.09,0-.19-.01-.28-.02-.1-.01-.2-.01-.29-.02-.1-.01-.19-.02-.29-.03-.09,0-.19-.01-.28-.02-.1-.01-.2-.01-.29-.02-.1-.01-.19-.02-.29-.02-.09-.01-.19-.02-.28-.03-.1-.01-.19-.01-.29-.02s-.19-.02-.29-.02c-.09-.01-.19-.02-.28-.03-.1,0-.19-.01-.29-.02s-.19-.01-.29-.02c-.09-.01-.19-.02-.28-.03-.1,0-.19-.01-.29-.02-.09-.01-.19-.01-.29-.02-.09-.01-.19-.02-.28-.02-.1-.01-.19-.02-.29-.03-.09-.01-.19-.01-.28-.02-.1-.01-.2-.02-.29-.02-.1-.01-.19-.02-.29-.03-.09,0-.19-.01-.29-.02-.09-.01-.19-.01-.28-.02-.1-.01-.19-.02-.29-.03-.09,0-.19-.01-.28-.02-.1-.01-.2-.01-.29-.02-.1-.01-.19-.02-.29-.02-.09-.01-.19-.02-.28-.03-.1-.01-.19-.01-.29-.02s-.19-.02-.29-.02c-.09-.01-.19-.02-.28-.03-.1,0-.19-.01-.29-.02-.1-.01-.19-.01-.29-.02-.09-.01-.19-.02-.28-.03-.1,0-.19-.01-.29-.02-.1-.01-.19-.01-.29-.02-.09-.01-.19-.02-.28-.02-.1-.01-.19-.02-.29-.03-.09-.01-.19-.01-.29-.02-.09-.01-.19-.02-.28-.02-.1-.01-.19-.02-.29-.03-.09,0-.19-.01-.28-.02-.1-.01-.2-.01-.29-.02-.1-.01-.19-.02-.29-.03-.09,0-.19-.01-.29-.02-.09-.01-.19-.01-.28-.02-.1-.01-.19-.02-.29-.02-.09-.01-.19-.02-.28-.03-.1,0-.2-.01-.29-.02-.1-.01-.19-.02-.29-.02-.09-.01-.19-.02-.28-.03-.1,0-.19-.01-.29-.02-.1-.01-.19-.01-.29-.02-.09-.01-.19-.02-.28-.03-.1,0-.19-.01-.29-.02-.1-.01-.19-.01-.29-.02-.09-.01-.19-.02-.28-.02-.1-.01-.19-.02-.29-.03-.1,0-.19-.01-.29-.02-.09-.01-.19-.02-.28-.02-.1-.01-.19-.02-.29-.03-.09,0-.19-.01-.29-.02-.09-.01-.19-.01-.28-.02-.1-.01-.19-.02-.29-.03-.09,0-.19-.01-.29-.02-.09-.01-.19-.01-.28-.02-.1-.01-.19-.02-.29-.02-.09-.01-.19-.02-.28-.03-.1,0-.2-.01-.29-.02-.1-.01-.19-.02-.29-.02-.09-.01-.19-.02-.28-.03-.1,0-.2-.01-.29-.02-.1-.01-.19-.01-.29-.02-.09-.01-.19-.02-.28-.03-.1,0-.19-.01-.29-.02-.1-.01-.19-.01-.29-.02-.09-.01-.19-.02-.28-.02-.1-.01-.19-.02-.29-.03-.1,0-.19-.01-.29-.02-.09-.01-.19-.02-.28-.02-.1-.01-.19-.02-.29-.03-.1,0-.19-.01-.29-.02-.09-.01-.19-.01-.28-.02-.1-.01-.19-.02-.29-.03-.09,0-.19-.01-.29-.02-.09-.01-.19-.01-.28-.02-.1-.01-.19-.02-.29-.02-.09-.01-.19-.02-.29-.03-.09,0-.19-.01-.28-.02-.1-.01-.19-.02-.29-.02-.09-.01-.19-.02-.28-.03-.1,0-.2-.01-.29-.02-.1-.01-.19-.01-.29-.02-.09-.01-.19-.02-.29-.03-.09,0-.19-.01-.28-.02-.1,0-.19-.01-.29-.02-.09-.01-.19-.02-.28-.02-.1-.01-.19-.02-.29-.03-.1,0-.19-.01-.29-.02-.09-.01-.19-.02-.28-.02-.1-.01-.19-.02-.29-.03-.1,0-.19-.01-.29-.02-.09-.01-.19-.01-.28-.02-.1-.01-.19-.02-.29-.02-.1-.01-.19-.02-.29-.03-.09,0-.19-.01-.28-.02-.1-.01-.19-.02-.29-.02-.1-.01-.19-.02-.29-.03-.09,0-.19-.01-.28-.02-.1-.01-.19-.02-.29-.02-.09-.01-.19-.02-.29-.03-.09,0-.19-.01-.28-.02-25.67-2.02-46.65-33.14-50.7-73.5h-.71c-16.41,0-30.62-12.59-37.55-30.95-4.87,23.9-21.18,41.47-40.57,41.47-.05,0-.11,0-.16,0s-.11,0-.16,0-.11,0-.16,0-.11,0-.16,0-.11,0-.16,0-.11,0-.16,0-.11,0-.16,0-.11,0-.16,0-.11,0-.16,0-.11,0-.16,0-.11,0-.17,0-.11,0-.16,0-.11,0-.17,0-.11,0-.16,0-.11,0-.16,0-.11,0-.16,0-.11,0-.16,0-.11,0-.16,0-.11,0-.16,0-.11,0-.16,0-.11,0-.16,0-.11,0-.16,0-.11,0-.16,0-.11,0-.16,0-.11,0-.16,0-.11,0-.16,0-.11,0-.16,0-.11,0-.16,0-.11,0-.16,0-.11,0-.16,0-.11,0-.16,0-.11,0-.16,0-.11,0-.16,0-.11,0-.16,0-.11,0-.16,0-.11,0-.16,0-.11,0-.16,0-.11,0-.16,0-.11,0-.16,0-.11,0-.17,0-.11,0-.16,0-.11,0-.16,0-.11,0-.16,0-.11,0-.16,0-.11,0-.16,0-.11,0-.16,0-.11,0-.16,0-.11,0-.16,0-.11,0-.16,0-.11,0-.16,0-.11,0-.16,0-.11,0-.16,0-.11,0-.16,0-.11,0-.16,0-.11,0-.16,0-.11,0-.16,0-.11,0-.16,0-.11,0-.16,0-.11,0-.16,0-.11,0-.16,0-.11,0-.16,0-.11,0-.16,0-.11,0-.16,0-.11,0-.16,0-.11,0-.16,0-.11,0-.16,0-.11,0-.16,0-.11,0-.16,0-.11,0-.16,0-.11,0-.16,0-.11,0-.16,0-.11,0-.16,0-.11,0-.17,0-.11,0-.16,0-.11,0-.16,0-.11,0-.16,0-.11,0-.16,0-.11,0-.16,0-.11,0-.16,0-.11,0-.16,0-.11,0-.16,0-.11,0-.16,0-.11,0-.16,0-.11,0-.16,0-.11,0-.16,0-.11,0-.16,0-.11,0-.16,0-.11,0-.16,0-.11,0-.16,0-.11,0-.16,0-.11,0-.16,0-.11,0-.16,0-.11,0-.16,0-.11,0-.16,0-.11,0-.16,0-.11,0-.16,0-.11,0-.16,0-.11,0-.16,0-.11,0-.16,0-.11,0-.17,0-.11,0-.16,0-.11,0-.16,0-.11,0-.16,0-.11,0-.16,0-.11,0-.16,0-.11,0-.16,0-.11,0-.16,0-.11,0-.16,0-.11,0-.16,0-.11,0-.16,0-.11,0-.16,0-.11,0-.16,0-.11,0-.16,0-.11,0-.16,0-.11,0-.16,0-.11,0-.16,0-.11,0-.16,0-.11,0-.16,0-.11,0-.16,0-.11,0-.16,0-.11,0-.16,0-.11,0-.16,0-.11,0-.16,0-.11,0-.16,0-.11,0-.16,0-.11,0-.16,0-.11,0-.16,0-.11,0-.16,0-.11,0-.16,0-.11,0-.16,0-.11,0-.16,0-.11,0-.16,0-.11,0-.16,0-.11,0-.16,0-.11,0-.16,0-.11,0-.16,0-.11,0-.16,0-.11,0-.16,0-.11,0-.16,0-.11,0-.16,0-.11,0-.16,0-.11,0-.16,0-.11,0-.16,0-.11,0-.16,0-.11,0-.16,0-.11,0-.16,0-.11,0-.16,0-.11,0-.16,0-.11,0-.16,0-.11,0-.16,0-.11,0-.16,0-.11,0-.16,0-.11,0-.16,0-.11,0-.16,0-.11,0-.16,0-.11,0-.16,0-.11,0-.16,0-.11,0-.17,0-.11,0-.16,0-.11,0-.17,0-.11,0-.16,0-.11,0-.16,0-.11,0-.16,0-.11,0-.16,0-.11,0-.16,0-.11,0-.16,0-.11,0-.16,0-.11,0-.16,0-.11,0-.16,0-.11,0-.16,0-.11,0-.16,0-.11,0-.16,0-.11,0-.16,0-.11,0-.16,0-.11,0-.16,0-.11,0-.16,0-.11,0-.16,0-.11,0-.16,0-.11,0-.16,0-.11,0-.16,0-.11,0-.16,0-.11,0-.16,0-.11,0-.16,0-.11,0-.16,0-.11,0-.16,0-.11,0-.16,0-.11,0-.17,0-.11,0-.16,0-.11,0-.16,0-.11,0-.16,0-.11,0-.16,0-.11,0-.16,0c-16.74,0-31.19-13.09-37.96-32.05-2.82,27.44-20.39,48.58-41.65,48.58-.05,0-.11,0-.16,0s-.11,0-.16,0-.11,0-.16,0-.11,0-.16,0-.11,0-.16,0-.11,0-.16,0-.11,0-.16,0-.11,0-.16,0-.11,0-.16,0-.11,0-.16,0-.11,0-.16,0-.11,0-.16,0-.11,0-.16,0-.11,0-.16,0-.11,0-.16,0-.11,0-.16,0-.11,0-.16,0-.11,0-.16,0-.11,0-.16,0-.11,0-.16,0-.11,0-.16,0-.11,0-.16,0-.11,0-.16,0-.11,0-.16,0-.11,0-.16,0-.11,0-.16,0-.11,0-.16,0-.11,0-.16,0-.11,0-.16,0-.11,0-.16,0-.11,0-.16,0-.11,0-.16,0-.11,0-.16,0-.11,0-.16,0-.11,0-.16,0-.11,0-.16,0-.11,0-.17,0-.11,0-.16,0-.11,0-.17,0-.11,0-.16,0-.11,0-.16,0-.11,0-.16,0-.11,0-.16,0-.11,0-.16,0-.11,0-.16,0-.11,0-.16,0-.11,0-.16,0-.11,0-.16,0-.11,0-.16,0-.11,0-.16,0-.11,0-.16,0-.11,0-.16,0-.11,0-.16,0-.11,0-.16,0-.11,0-.16,0-.11,0-.16,0-.11,0-.16,0-.11,0-.16,0-.11,0-.16,0-.11,0-.16,0-.11,0-.16,0-.11,0-.16,0-.11,0-.16,0-.11,0-.17,0-.11,0-.16,0-.11,0-.16,0-.11,0-.16,0-.11,0-.16,0-.11,0-.16,0-.11,0-.16,0-.11,0-.16,0-.11,0-.16,0-.11,0-.16,0-.11,0-.16,0-.11,0-.16,0-.11,0-.16,0-.11,0-.16,0-.11,0-.16,0-.11,0-.16,0-.11,0-.16,0-.11,0-.16,0-.11,0-.16,0-.11,0-.16,0-.11,0-.16,0-.11,0-.16,0-.11,0-.16,0-.11,0-.16,0-.11,0-.16,0-.11,0-.16,0-.11,0-.16,0-.11,0-.16,0-.11,0-.16,0-.11,0-.16,0-.11,0-.16,0-.11,0-.16,0-.11,0-.16,0-.11,0-.17,0-.11,0-.16,0-.11,0-.16,0-.11,0-.16,0-.11,0-.16,0-.11,0-.16,0-.11,0-.16,0-.11,0-.16,0-.11,0-.16,0-.11,0-.16,0-.11,0-.16,0-.11,0-.16,0-.11,0-.16,0-.11,0-.16,0-.11,0-.16,0-.11,0-.16,0-.11,0-.16,0-.11,0-.16,0-.11,0-.16,0-.11,0-.16,0-.11,0-.16,0-.11,0-.16,0-.11,0-.16,0-.11,0-.16,0-.11,0-.16,0-.11,0-.16,0-.11,0-.16,0-.11,0-.17,0-.11,0-.16,0-.11,0-.17,0-.11,0-.16,0-.11,0-.16,0-.11,0-.16,0-.11,0-.16,0-.11,0-.16,0-.11,0-.16,0-.11,0-.16,0-.11,0-.16,0-.11,0-.16,0-.11,0-.16,0-.11,0-.16,0-.11,0-.16,0-.11,0-.16,0-.11,0-.16,0-.11,0-.16,0-.11,0-.16,0-.11,0-.16,0-.11,0-.16,0-.11,0-.16,0-.11,0-.16,0-.11,0-.16,0-.11,0-.16,0-.11,0-.16,0-.11,0-.16,0-.11,0-.16,0-.11,0-.16,0-.11,0-.16,0-.11,0-.16,0-.11,0-.16,0-.11,0-.16,0-.11,0-.16,0-.11,0-.16,0-.11,0-.16,0-.11,0-.16,0-.11,0-.16,0-.11,0-.16,0-.11,0-.16,0-.11,0-.16,0-.11,0-.16,0-.11,0-.16,0-.11,0-.16,0-.11,0-.16,0-.11,0-.16,0-.11,0-.16,0-.11,0-.16,0-.11,0-.16,0-.11,0-.16,0-.11,0-.16,0-.11,0-.16,0-.11,0-.16,0-.11,0-.16,0-.11,0-.16,0-.11,0-.16,0-.11,0-.16,0-.11,0-.16,0-.11,0-.16,0-.11,0-.16,0-.11,0-.17,0-.11,0-.16,0-.11,0-.16,0-.11,0-.16,0-.11,0-.16,0-.11,0-.16,0-.11,0-.16,0-.11,0-.16,0-.11,0-.16,0c-23.23,0-42.06-25.22-42.06-56.33,0-7.87,1.21-15.37,3.39-22.17-45.19,4.64-90.39,9.28-135.58,13.92-.5,56.08-1,112.16-1.5,168.24,7,9.01,14.02,18.02,21.02,27.04-13.02,4-26.03,8.01-39.05,12.01-10.51-3.51-21.04-7-31.55-10.51,7.51-9.01,15.02-18.02,22.54-27.04-4.51-56.59-9.01-113.17-13.52-169.75-29.04-11.52-58.08-23.03-87.12-34.55-24.04,4-48.07,8.01-72.11,12.01-.5,47.07-.99,94.14-1.5,141.21,5.01,8.01,10.02,16.02,15.02,24.04-11.52,3.5-23.03,7-34.55,10.51-9.01-3.51-18.02-7.02-27.04-10.51,8.01-8.02,16.02-16.03,24.04-24.04-1-47.58-2.01-95.14-3.01-142.71-14.02-7.51-28.04-15.02-42.06-22.54-136.19,7.02-272.39,14.02-408.59,21.04-47.07-10.02-94.14-20.03-141.21-30.05-5-13.51-10-27.04-15.01-40.56,15.52-6,31.04-12.01,46.56-18.02h44.55L0,178.08,243.87,0c.2,.44,.41,.89,.61,1.33,488.95,135.62,977.9,271.25,1466.85,406.87v27.04Zm-98.45,447.23c13.12,1.11,24.48-20.52,25.37-48.29,.9-27.77-9.01-51.17-22.12-52.28-13.12-1.11-24.48,20.52-25.37,48.29-.89,27.77,9.01,51.18,22.12,52.28Zm-423.87-69.82c-1.78,.18-3.56,.37-5.35,.55,1.45,2.7,2.74,5.57,3.82,8.61,.32-3.14,.83-6.2,1.53-9.15Zm255.63,4.23c-3.94-5.3-8.58-8.53-13.63-8.96-6.94-.59-13.46,4.23-18.62,12.68h0c-.12,.2-.24,.39-.35,.59h0c-5.12,8.62-8.85,20.82-10.3,34.84h0c-.02,.2-.04,.39-.06,.59-.26,2.66-.44,5.37-.53,8.14-1.06,32.69,10.6,60.24,26.04,61.54,11.42,.96,21.7-12.71,26.7-33.12,1.77-7.19,2.89-15.21,3.16-23.72,.71-22-4.34-41.68-12.42-52.59Zm97.27-16.56c-3.7-4.89-8.05-7.87-12.78-8.27-14.67-1.24-27.39,22.97-28.39,54.05-1,31.09,10.08,57.29,24.77,58.52,10.2,.86,19.45-10.57,24.49-28.06h0c2.2-7.68,3.6-16.51,3.9-25.99,.68-21.09-4.21-39.93-11.99-50.25Zm6.68-24.58c.64,.87,1.27,1.76,1.88,2.7,.6-1.05,1.21-2.08,1.84-3.08-1.24,.14-2.48,.26-3.72,.38Zm-101.81,10.46c1.85,1.88,3.61,4,5.29,6.34,1.13-2.53,2.33-4.95,3.62-7.25-2.97,.3-5.94,.61-8.91,.91Zm-149.6,15.35s0,0,0,0c.37,.87,.73,1.76,1.07,2.66,.19-.95,.38-1.9,.61-2.83-.55,.06-1.12,.11-1.67,.17ZM257.21,43.5C182.73,91.78,108.26,140.05,33.78,188.33c62.34,178.66,124.69,357.32,187.03,535.98,6.09,.3,12.18,.61,18.27,.91,78.18-.65,156.36-1.3,234.55-1.96-72.14-226.59-144.28-453.18-216.42-679.78Z"/>
</svg>