<?xml version="1.0" encoding="UTF-8"?>
<svg id="_Слой_1" data-name="Слой 1" xmlns="http://www.w3.org/2000/svg" xmlns:xlink="http://www.w3.org/1999/xlink" viewBox="0 0 1843 602.65">
  <defs>
    <style>
      .cls-1 {
        fill: url(#_Безымянный_градиент_164);
      }
    </style>
    <linearGradient id="_Безымянный_градиент_164" data-name="Безымянный градиент 164" x1="0" y1="301.32" x2="1843" y2="301.32" gradientUnits="userSpaceOnUse">
      <stop offset=".01" stop-color="#8e3f1c"/>
      <stop offset=".22" stop-color="#ab6325"/>
      <stop offset=".44" stop-color="#c4852e"/>
      <stop offset=".59" stop-color="#d6a647"/>
      <stop offset=".7" stop-color="#b67b2b"/>
      <stop offset=".88" stop-color="#a15f24"/>
      <stop offset="1" stop-color="#84481b"/>
    </linearGradient>
  </defs>
  <path class="cls-1" d="M938.57,480.7c.36-11.09-3.4-20.51-8.5-21.78,.51-.13,1.05-.18,1.58-.14,5.5,.46,9.65,10.27,9.27,21.91-.38,11.64-5.13,20.7-10.63,20.23-.26-.03-.51-.07-.77-.14,4.79-1.2,8.7-9.6,9.04-20.1Zm-113.7-5.5c-.64-.05-1.26,0-1.87,.16,3.93,.98,7.18,6.05,8.84,13.1,.74,3.13,1.16,6.64,1.19,10.36,.01,.72,0,1.44-.02,2.17-.4,12.36-5,22.25-10.65,23.66,.3,.08,.6,.13,.9,.16,5.44,.46,10.26-7,11.92-17.52,.32-2,.52-4.11,.59-6.3,.26-7.98-1.29-15.23-3.92-20.01-1.87-3.41-4.29-5.55-6.99-5.78Zm56.59-9.61c-.6-.05-1.19,0-1.78,.15,3.15,.78,5.84,4.33,7.55,9.44,1.4,4.16,2.15,9.36,1.97,14.93-.03,.97-.09,1.93-.18,2.86-.93,10.39-5.02,18.41-9.94,19.65,.28,.06,.57,.12,.86,.15,4.7,.39,8.91-5.42,10.83-14,.59-2.65,.97-5.57,1.07-8.65,.26-8.12-1.44-15.43-4.26-19.93-1.69-2.72-3.8-4.4-6.12-4.6Zm105.35-214.61C730.12,186.3,473.44,121.62,216.76,56.95c4.04,13.57,8.08,27.14,12.13,40.71,252.64,60.63,505.28,121.27,757.92,181.9v4.33c-248.89-47.64-497.77-95.28-746.66-142.92,5.2,17.04,10.39,34.07,15.59,51.11,243.69,40.42,487.38,80.85,731.07,121.27v4.33c-239.65-28.3-479.29-56.59-718.94-84.89,6.35,21.08,12.7,42.15,19.06,63.23,233.3,16.75,466.59,33.49,699.89,50.24v4.33c-228.68-2.6-457.35-5.2-686.03-7.8,4.62,15.88,9.24,31.76,13.86,47.64,224.06-5.2,448.11-10.39,672.17-15.59v23.39c-9.1,.34-18.2,.69-27.3,1.03-13.42,4.85-26.84,9.71-40.26,14.56-2.72,7.19-5.44,14.37-8.16,21.56,.68-.08,1.37-.13,2.06-.13,.47,0,.95,.03,1.42,.07,.05,0,.09,.01,.14,.01,.05,0,.08,.01,.13,.01,.05,0,.09,0,.14,.01,.05,0,.09,0,.14,.01,.05,0,.08,0,.13,.01,.05,0,.09,0,.14,.01,.05,0,.09,0,.14,.01,.05,0,.08,0,.13,.01,.05,0,.09,0,.14,.01,.05,0,.09,0,.14,0,.05,0,.09,.01,.14,.01,.04,0,.08,.01,.13,.01,.05,0,.09,.01,.14,.01,.05,0,.09,0,.13,.01,.05,0,.09,0,.14,.01,.05,0,.09,0,.14,.01,.05,0,.09,0,.14,.01,.04,0,.08,0,.13,.01,.05,0,.09,0,.14,.01,.05,0,.09,0,.14,.01,.05,0,.08,0,.13,0,.05,0,.09,.01,.14,.01,.05,0,.09,.01,.14,.01,.05,0,.08,.01,.13,.01,.05,0,.09,0,.14,.01,.05,0,.09,0,.14,.01,.05,0,.09,0,.13,.01,.05,0,.09,0,.14,.01,.05,0,.09,0,.14,.01,.05,0,.09,0,.14,.01,.04,0,.08,0,.13,.01,.05,0,.09,0,.14,0,.05,0,.09,.01,.13,.01,.05,0,.09,.01,.14,.01,.05,0,.09,.01,.14,.01,.05,0,.09,0,.14,.01,.05,0,.08,0,.13,.01,.05,0,.09,0,.14,.01,.05,0,.09,0,.14,.01,.05,0,.08,0,.13,.01,.05,0,.09,0,.14,.01,.05,0,.09,0,.14,.01,.05,0,.08,0,.13,0,.05,0,.09,.01,.14,.01,.05,0,.09,.01,.14,.01,.05,0,.09,.01,.13,.01,.05,0,.09,0,.14,.01s.09,0,.14,.01c.05,0,.09,0,.14,.01,.04,0,.08,0,.13,.01,.05,0,.09,0,.14,.01,.05,0,.09,0,.13,.01,.05,0,.09,0,.14,.01,.05,0,.09,0,.14,0,.05,0,.09,.01,.14,.01,.04,0,.08,.01,.13,.01,.05,0,.09,0,.14,.01,.05,0,.09,0,.14,.01,.05,0,.08,0,.13,.01,.05,0,.09,0,.14,.01,.05,0,.09,0,.14,.01,.05,0,.08,0,.13,.01,.05,0,.09,0,.14,.01,.05,0,.09,0,.14,.01,.05,0,.09,0,.13,0,.05,0,.09,.01,.14,.01,.05,0,.09,.01,.14,.01,.05,0,.09,0,.13,.01,.05,0,.09,0,.14,.01,.05,0,.09,0,.14,.01,.05,0,.09,0,.14,.01,.04,0,.08,0,.13,.01,.05,0,.09,0,.14,.01,.05,0,.09,0,.14,.01,.05,0,.08,0,.13,0,.05,0,.09,.01,.14,.01,.05,0,.09,.01,.14,.01,.05,0,.08,.01,.13,.01,.05,0,.09,0,.14,.01,.05,0,.09,0,.14,.01,.05,0,.08,0,.13,.01,.05,0,.09,0,.14,.01,.05,0,.09,0,.14,.01,.05,0,.09,0,.13,.01,.05,0,.09,0,.14,.01,.05,0,.09,0,.14,0,.05,0,.09,.01,.13,.01,.05,0,.09,.01,.14,.01,.05,0,.09,.01,.14,.01,.05,0,.09,0,.14,.01,.04,0,.08,0,.13,.01,.05,0,.09,0,.14,.01,.05,0,.09,0,.14,.01,.04,0,.08,0,.13,.01,.05,0,.09,0,.14,.01,.05,0,.09,0,.14,.01,.05,0,.08,0,.13,0,.05,0,.09,.01,.14,.01,.05,0,.09,.01,.14,.01,.05,0,.09,0,.13,.01,.05,0,.09,0,.14,.01,.05,0,.09,0,.14,.01,.05,0,.09,0,.13,.01,.05,0,.09,0,.14,.01,.05,0,.09,0,.14,.01,.05,0,.09,0,.13,.01,.05,0,.09,0,.14,.01,.05,0,.09,0,.14,0,.05,0,.09,.01,.14,.01,.04,0,.08,.01,.13,.01,.05,0,.09,0,.14,.01,.05,0,.09,0,.14,.01,.04,0,.08,0,.13,.01,.05,0,.09,0,.14,.01,11.53,.92,20.72,19.43,20.72,42.11s-9.68,42.16-21.62,42.16c-.44,0-.88-.03-1.31-.08h-.02s-.08,0-.12-.01c-.05,0-.09,0-.14-.01-.05,0-.1,0-.14-.01-.05,0-.09,0-.14,0-.05,0-.09-.01-.14-.01-.05,0-.09-.01-.14-.01-.05,0-.09,0-.14-.01-.05,0-.09,0-.14-.01-.05,0-.1,0-.14-.01-.05,0-.09,0-.14-.01-.05,0-.09,0-.14-.01-.05,0-.09,0-.14-.01-.05,0-.09,0-.14-.01-.05,0-.09,0-.14-.01-.05,0-.09,0-.14,0-.05,0-.09-.01-.14-.01-.05,0-.09-.01-.14-.01-.05,0-.09,0-.14-.01s-.09,0-.14-.01c-.05,0-.09,0-.14-.01-.05,0-.09,0-.14-.01s-.09,0-.14-.01c-.05,0-.09,0-.14-.01-.05,0-.09,0-.14-.01-.05,0-.09,0-.14-.01-.05,0-.1,0-.14,0-.05,0-.09-.01-.14-.01-.05,0-.09-.01-.14-.01-.05,0-.1-.01-.14-.01-.05,0-.09,0-.14-.01-.05,0-.09,0-.14-.01s-.1,0-.14-.01-.09,0-.14-.01c-.05,0-.09,0-.14-.01-.05,0-.1,0-.14-.01-.05,0-.09,0-.14-.01-.05,0-.09,0-.14-.01-.05,0-.1,0-.14,0-.05,0-.09-.01-.14-.01-.05,0-.09-.01-.14-.01-.05,0-.1,0-.14-.01-.05,0-.09,0-.14-.01s-.09,0-.14-.01c-.05,0-.1,0-.14-.01-.05,0-.09,0-.14-.01-.05,0-.09,0-.14-.01-.05,0-.1,0-.14-.01-.05,0-.09,0-.14-.01-.05,0-.09,0-.14,0-.05,0-.09-.01-.14-.01-.05,0-.09-.01-.14-.01-.05,0-.09-.01-.14-.01-.05,0-.1,0-.14-.01s-.09,0-.14-.01c-.05,0-.09,0-.14-.01-.05,0-.09,0-.14-.01-.05,0-.09,0-.14-.01-.05,0-.09,0-.14-.01-.05,0-.1,0-.14-.01-.05,0-.09,0-.14-.01-.05,0-.09,0-.14,0-.05,0-.09-.01-.14-.01-.05,0-.09-.01-.14-.01-.05,0-.09,0-.14-.01-.05,0-.09,0-.14-.01-.05,0-.09,0-.14-.01s-.1,0-.14-.01c-.05,0-.09,0-.14-.01-.05,0-.09,0-.14-.01-.05,0-.1,0-.14-.01-.05,0-.09,0-.14-.01-.05,0-.09,0-.14,0-.05,0-.1-.01-.14-.01-.05,0-.09-.01-.14-.01-.05,0-.09-.01-.14-.01-.05,0-.1,0-.14-.01-.05,0-.09,0-.14-.01-.05,0-.09,0-.14-.01-.05,0-.1,0-.14-.01-.05,0-.09,0-.14-.01-.05,0-.09,0-.14-.01-.05,0-.1,0-.14-.01-.05,0-.09,0-.14,0-.05,0-.09-.01-.14-.01-.05,0-.1-.01-.14-.01-.05,0-.09-.01-.14-.01-.05,0-.09-.01-.14-.01-.05,0-.1,0-.14-.01-.05,0-.09,0-.14-.01-.05,0-.09,0-.14-.01-.05,0-.1,0-.14-.01-.05,0-.09,0-.14-.01-.05,0-.09,0-.14-.01-.05,0-.1,0-.14-.01-.05,0-.09,0-.14,0-.05,0-.09-.01-.14-.01-.05,0-.09-.01-.14-.01-.05,0-.09-.01-.14-.01-.05,0-.09,0-.14-.01-.05,0-.1,0-.14-.01s-.09,0-.14-.01c-.05,0-.09,0-.14-.01-.05,0-.1,0-.14-.01-.05,0-.09,0-.14-.01-.05,0-.09,0-.14-.01-.05,0-.09,0-.14,0-.05,0-.09-.01-.14-.01-.05,0-.09-.01-.14-.01-.05,0-.09-.01-.14-.01-.05,0-.09-.01-.14-.01-.05,0-.09,0-.14-.01-.05,0-.09,0-.14-.01-.05,0-.09,0-.14-.01-.05,0-.09,0-.14-.01-4.59-.36-8.87-2.66-12.52-6.41-4.38,12.73-11.84,21.11-20.3,21.11-.42,0-.84-.02-1.26-.07-.03,0-.06,0-.08,0-.05,0-.1,0-.15-.01-.05,0-.1,0-.16-.01-.05,0-.1,0-.16-.01-.05,0-.1-.01-.16-.01-.05,0-.1-.01-.16-.02-.05,0-.1,0-.16-.01-.05,0-.1,0-.16-.01-.05,0-.1,0-.16-.01-.05,0-.1,0-.16-.01-.05,0-.1-.01-.16-.01-.05,0-.1-.01-.16-.02-.05,0-.1,0-.16-.01-.05,0-.1,0-.16-.01-.06,0-.11,0-.16-.01-.05,0-.1,0-.16-.01s-.1-.01-.16-.01c-.05,0-.1-.01-.16-.02-.05,0-.1,0-.16-.01-.05,0-.1,0-.16-.01-.05,0-.1,0-.16-.01-.06,0-.11,0-.16-.01-.05,0-.1-.01-.16-.01-.05,0-.1-.01-.16-.02-.05,0-.1,0-.16-.01-.05,0-.1,0-.16-.01-.05,0-.1,0-.16-.01s-.1,0-.16-.01c-.05,0-.1-.01-.16-.01-.05,0-.1-.01-.16-.02-.05,0-.1,0-.16-.01-.05,0-.1,0-.16-.01s-.1,0-.16-.01c-.05,0-.1,0-.16-.01-.05,0-.1-.01-.16-.01-.06,0-.11-.01-.16-.02-.05,0-.1,0-.16-.01-.05,0-.1,0-.16-.01-.05,0-.1,0-.16-.01-.05,0-.1,0-.16-.01-.05,0-.1-.01-.16-.01-.05,0-.1-.01-.16-.02-.05,0-.1,0-.16-.01-.05,0-.1,0-.16-.01s-.1,0-.16-.01-.1,0-.16-.01c-.05,0-.1-.01-.16-.01-.05,0-.1-.01-.16-.02-.05,0-.1,0-.16-.01-.05,0-.1,0-.16-.01-.05,0-.1,0-.16-.01-.05,0-.1,0-.16-.01-.05,0-.1-.01-.16-.01-.05,0-.1-.01-.16-.02-.05,0-.1,0-.16-.01-.05,0-.1,0-.16-.01-.06,0-.11,0-.16-.01s-.1,0-.16-.01-.1-.01-.16-.01c-.05,0-.1-.01-.16-.01-.05,0-.1-.01-.16-.02-.05,0-.1,0-.16-.01-.05,0-.1,0-.16-.01-.05,0-.1,0-.16-.01-.05,0-.1-.01-.16-.01-.05,0-.1-.01-.16-.01-.05,0-.1-.01-.16-.02-.05,0-.1,0-.16-.01-.05,0-.1,0-.16-.01-.05,0-.1,0-.16-.01-.06,0-.11-.01-.16-.01-.05,0-.1-.01-.16-.01-.05,0-.1-.01-.16-.02-.05,0-.1,0-.16-.01-.05,0-.1,0-.16-.01-.05,0-.1,0-.16-.01-.05,0-.1-.01-.16-.01-.06,0-.11-.01-.16-.01-.05,0-.1-.01-.16-.02-.05,0-.1,0-.16-.01-.05,0-.1,0-.16-.01-.05,0-.1,0-.16-.01-.05,0-.1-.01-.16-.01-.05,0-.1-.01-.16-.01-.05,0-.1-.01-.16-.02-.05,0-.1,0-.16-.01-.05,0-.1,0-.16-.01s-.1,0-.16-.01-.1,0-.16-.01-.1-.01-.16-.01c-.05,0-.1-.01-.16-.02-.06,0-.11,0-.16-.01-.05,0-.1,0-.16-.01-.05,0-.1,0-.16-.01-.05,0-.1,0-.16-.01-.05,0-.1-.01-.16-.01-.05,0-.1-.01-.16-.02-.05,0-.11,0-.16-.01-.05,0-.1,0-.16-.01-.05,0-.1,0-.16-.01-.05,0-.1,0-.16-.01s-.1-.01-.16-.01c-.05,0-.1-.01-.16-.02-.05,0-.1,0-.16-.01-.05,0-.1,0-.16-.01-.05,0-.1,0-.16-.01-.05,0-.1,0-.16-.01-.05,0-.1-.01-.16-.01-.05,0-.1-.01-.16-.02-.05,0-.1,0-.16-.01-.05,0-.1,0-.16-.01-.05,0-.1,0-.16-.01-.06,0-.11,0-.16-.01-.05,0-.1-.01-.16-.01-.05,0-.1-.01-.16-.01-.05,0-.1-.01-.16-.02-5.59-.44-10.78-3.43-15.12-8.26-4.54,14.78-12.83,24.68-22.31,24.68-.29,0-.57,0-.85-.03-.02,0-.05,0-.07,0-.19,0-.38-.02-.57-.05-.03,0-.06,0-.09,0-.05,0-.11,0-.17-.01-.05,0-.11-.01-.16-.01-.06,0-.11-.01-.17-.02-.05,0-.11,0-.16-.01-.06,0-.12,0-.17-.01-.06,0-.11-.01-.17-.02-.05,0-.11,0-.16-.01-.06,0-.12,0-.17-.01-.06,0-.11-.01-.17-.01-.05,0-.11-.01-.16-.02-.06,0-.11,0-.17-.01-.06,0-.11-.01-.17-.01-.05,0-.11-.01-.16-.02-.06,0-.11,0-.17-.01-.06,0-.11,0-.17-.01-.05,0-.11-.01-.16-.02-.06,0-.11,0-.17-.01-.05,0-.11,0-.17-.01-.05,0-.11-.01-.16-.01-.06,0-.11-.01-.17-.02-.05,0-.11,0-.16-.01-.06,0-.12-.01-.17-.01-.06,0-.11-.01-.17-.02-.05,0-.11,0-.17-.01-.05,0-.11,0-.16-.01-.06,0-.11-.01-.17-.02-.05,0-.11,0-.16-.01-.06,0-.12,0-.17-.01-.06,0-.11-.01-.17-.01-.05,0-.11-.01-.16-.02-.06,0-.11,0-.17-.01-.06,0-.11-.01-.17-.01-.05,0-.11-.01-.16-.02-.06,0-.11,0-.17-.01-.06,0-.11,0-.17-.01-.05,0-.11-.01-.16-.02-.06,0-.11,0-.17-.01-.06,0-.11,0-.17-.01-.05,0-.11-.01-.16-.01-.06,0-.11-.01-.17-.02-.05,0-.11,0-.17-.01-.05,0-.11-.01-.16-.01-.06,0-.11-.01-.17-.02-.05,0-.11,0-.16-.01-.06,0-.12,0-.17-.01-.06,0-.11-.01-.17-.02-.05,0-.11,0-.17-.01-.05,0-.11,0-.16-.01-.06,0-.11-.01-.17-.01-.05,0-.11-.01-.16-.02-.06,0-.12,0-.17-.01-.06,0-.11-.01-.17-.01-.05,0-.11-.01-.16-.02-.06,0-.11,0-.17-.01-.06,0-.11,0-.17-.01-.05,0-.11-.01-.16-.02-.06,0-.11,0-.17-.01-.06,0-.11,0-.17-.01-.05,0-.11-.01-.16-.01-.06,0-.11-.01-.17-.02-.06,0-.11,0-.17-.01-.05,0-.11-.01-.16-.01-.06,0-.11-.01-.17-.02-.05,0-.11,0-.17-.01-.05,0-.11,0-.16-.01-.06,0-.11-.01-.17-.02-.05,0-.11,0-.17-.01-.05,0-.11,0-.16-.01-.06,0-.11-.01-.17-.01-.05,0-.11-.01-.16-.02-.06,0-.12,0-.17-.01-.06,0-.11-.01-.17-.01-.05,0-.11-.01-.16-.02-.06,0-.12,0-.17-.01-.06,0-.11,0-.17-.01-.05,0-.11-.01-.16-.02-.06,0-.11,0-.17-.01s-.11,0-.17-.01c-.05,0-.11-.01-.16-.01-.06,0-.11-.01-.17-.02-.06,0-.11,0-.17-.01-.05,0-.11-.01-.16-.01-.06,0-.11-.01-.17-.02-.06,0-.11,0-.17-.01-.05,0-.11,0-.16-.01-.06,0-.11-.01-.17-.02-.05,0-.11,0-.17-.01-.05,0-.11,0-.16-.01-.06,0-.11-.01-.17-.01-.05,0-.11-.01-.17-.02-.05,0-.11,0-.16-.01-.06,0-.11-.01-.17-.01-.05,0-.11-.01-.16-.02-.06,0-.12,0-.17-.01-.06,0-.11,0-.17-.01-.05,0-.11-.01-.17-.02-.05,0-.11,0-.16-.01-.06,0-.11,0-.17-.01-.05,0-.11-.01-.16-.01-.06,0-.11-.01-.17-.02-.06,0-.11,0-.17-.01-.05,0-.11-.01-.16-.01-.06,0-.11-.01-.17-.02-.06,0-.11,0-.17-.01-.05,0-.11,0-.16-.01-.06,0-.11-.01-.17-.01-.06,0-.11-.01-.17-.02-.05,0-.11,0-.16-.01-.06,0-.11-.01-.17-.01-.06,0-.11-.01-.17-.02-.05,0-.11,0-.16-.01-.06,0-.11-.01-.17-.01-.05,0-.11-.01-.17-.02-.05,0-.11,0-.16-.01-14.8-1.16-26.9-19.11-29.24-42.38h-.41c-9.46,0-17.65-7.26-21.65-17.85-2.81,13.78-12.22,23.91-23.39,23.91-.03,0-.06,0-.09,0-.03,0-.06,0-.09,0s-.06,0-.09,0c-.03,0-.06,0-.09,0s-.06,0-.09,0c-.03,0-.06,0-.09,0s-.06,0-.09,0c-.03,0-.06,0-.09,0s-.06,0-.09,0c-.03,0-.06,0-.09,0s-.06,0-.09,0c-.03,0-.06,0-.09,0s-.06,0-.09,0c-.03,0-.06,0-.09,0s-.06,0-.09,0c-.03,0-.06,0-.09,0s-.06,0-.09,0c-.03,0-.06,0-.09,0s-.06,0-.09,0c-.03,0-.06,0-.09,0s-.06,0-.09,0c-.03,0-.06,0-.09,0s-.06,0-.09,0c-.03,0-.06,0-.09,0s-.06,0-.09,0c-.03,0-.06,0-.09,0s-.06,0-.09,0c-.03,0-.06,0-.09,0s-.06,0-.09,0c-.03,0-.06,0-.09,0s-.06,0-.09,0c-.03,0-.06,0-.09,0s-.06,0-.09,0c-.03,0-.06,0-.09,0s-.06,0-.09,0c-.03,0-.06,0-.09,0s-.06,0-.09,0c-.03,0-.06,0-.09,0s-.06,0-.09,0c-.03,0-.06,0-.09,0s-.06,0-.09,0c-.03,0-.06,0-.09,0s-.06,0-.09,0c-.03,0-.06,0-.09,0s-.06,0-.09,0c-.03,0-.06,0-.09,0s-.06,0-.09,0c-.03,0-.06,0-.09,0s-.06,0-.09,0c-.03,0-.06,0-.09,0s-.06,0-.09,0c-.03,0-.06,0-.09,0s-.06,0-.09,0c-.03,0-.06,0-.09,0s-.06,0-.09,0c-.03,0-.06,0-.09,0s-.06,0-.09,0c-.03,0-.06,0-.09,0s-.06,0-.09,0c-.03,0-.06,0-.09,0s-.06,0-.09,0c-.03,0-.06,0-.09,0s-.06,0-.09,0c-.03,0-.06,0-.09,0s-.06,0-.09,0c-.03,0-.06,0-.09,0s-.06,0-.09,0c-.03,0-.06,0-.09,0s-.06,0-.09,0c-.03,0-.06,0-.09,0s-.06,0-.09,0c-.03,0-.06,0-.09,0s-.06,0-.09,0c-.03,0-.06,0-.09,0s-.06,0-.09,0c-.03,0-.06,0-.09,0s-.06,0-.09,0c-.03,0-.06,0-.09,0s-.06,0-.09,0c-.03,0-.06,0-.09,0s-.06,0-.09,0c-.03,0-.06,0-.09,0s-.06,0-.09,0c-.03,0-.06,0-.09,0s-.06,0-.09,0c-.03,0-.06,0-.09,0s-.06,0-.09,0c-.03,0-.06,0-.09,0s-.06,0-.09,0c-.03,0-.06,0-.09,0s-.06,0-.09,0c-.03,0-.06,0-.09,0s-.06,0-.09,0c-.03,0-.06,0-.09,0s-.06,0-.09,0c-.03,0-.06,0-.09,0s-.06,0-.09,0c-.03,0-.06,0-.09,0s-.06,0-.09,0c-.03,0-.06,0-.09,0s-.06,0-.09,0c-.03,0-.06,0-.09,0s-.06,0-.09,0c-.03,0-.06,0-.09,0s-.06,0-.09,0c-.03,0-.06,0-.09,0s-.06,0-.09,0c-.03,0-.06,0-.09,0s-.06,0-.09,0c-.03,0-.06,0-.09,0s-.06,0-.09,0c-.03,0-.06,0-.09,0s-.06,0-.09,0c-.03,0-.06,0-.09,0s-.06,0-.09,0c-.03,0-.06,0-.09,0s-.06,0-.09,0c-.03,0-.06,0-.09,0s-.06,0-.09,0c-.03,0-.06,0-.09,0s-.06,0-.09,0c-.03,0-.06,0-.09,0s-.06,0-.09,0c-.03,0-.06,0-.09,0s-.06,0-.09,0c-.03,0-.06,0-.09,0s-.06,0-.09,0c-.03,0-.06,0-.09,0s-.06,0-.09,0c-.03,0-.06,0-.09,0s-.06,0-.09,0c-.03,0-.06,0-.09,0s-.06,0-.09,0c-.03,0-.06,0-.09,0s-.06,0-.09,0c-.03,0-.06,0-.09,0s-.06,0-.09,0c-.03,0-.06,0-.09,0s-.06,0-.09,0c-.03,0-.06,0-.09,0s-.06,0-.09,0c-.03,0-.06,0-.09,0s-.06,0-.09,0c-.03,0-.06,0-.09,0s-.06,0-.09,0c-.03,0-.06,0-.09,0s-.06,0-.09,0c-.03,0-.06,0-.09,0s-.06,0-.09,0c-.03,0-.06,0-.09,0s-.06,0-.09,0c-.03,0-.06,0-.09,0s-.06,0-.09,0c-.03,0-.06,0-.09,0s-.06,0-.09,0c-.03,0-.06,0-.09,0s-.06,0-.09,0c-.03,0-.06,0-.09,0s-.06,0-.09,0c-.03,0-.06,0-.09,0s-.06,0-.09,0c-.03,0-.06,0-.09,0s-.06,0-.09,0c-.03,0-.06,0-.09,0s-.06,0-.09,0c-.03,0-.06,0-.09,0s-.06,0-.09,0c-.03,0-.06,0-.09,0s-.06,0-.09,0c-.03,0-.06,0-.09,0s-.06,0-.09,0c-.03,0-.06,0-.09,0s-.06,0-.09,0c-.03,0-.06,0-.09,0s-.06,0-.09,0c-.03,0-.06,0-.09,0s-.06,0-.09,0c-.03,0-.06,0-.09,0s-.06,0-.09,0c-.03,0-.06,0-.09,0s-.06,0-.09,0c-.03,0-.06,0-.09,0s-.06,0-.09,0c-.03,0-.06,0-.09,0s-.06,0-.09,0c-.03,0-.06,0-.09,0s-.06,0-.09,0c-.03,0-.06,0-.09,0s-.06,0-.09,0c-.03,0-.06,0-.09,0s-.06,0-.09,0c-.03,0-.06,0-.09,0-9.65,0-17.98-7.55-21.89-18.48-1.63,15.82-11.76,28.01-24.02,28.01-.03,0-.06,0-.09,0-.03,0-.06,0-.09,0s-.06,0-.09,0c-.03,0-.06,0-.09,0s-.06,0-.09,0c-.03,0-.06,0-.09,0s-.06,0-.09,0c-.03,0-.06,0-.09,0s-.06,0-.09,0c-.03,0-.06,0-.09,0s-.06,0-.09,0c-.03,0-.06,0-.09,0s-.06,0-.09,0c-.03,0-.06,0-.09,0s-.06,0-.09,0c-.03,0-.06,0-.09,0s-.06,0-.09,0c-.03,0-.06,0-.09,0s-.06,0-.09,0c-.03,0-.06,0-.09,0s-.06,0-.09,0c-.03,0-.06,0-.09,0s-.06,0-.09,0c-.03,0-.06,0-.09,0s-.06,0-.09,0c-.03,0-.06,0-.09,0s-.06,0-.09,0c-.03,0-.06,0-.09,0s-.06,0-.09,0c-.03,0-.06,0-.09,0s-.06,0-.09,0c-.03,0-.06,0-.09,0s-.06,0-.09,0c-.03,0-.06,0-.09,0s-.06,0-.09,0c-.03,0-.06,0-.09,0s-.06,0-.09,0c-.03,0-.06,0-.09,0s-.06,0-.09,0c-.03,0-.06,0-.09,0s-.06,0-.09,0c-.03,0-.06,0-.09,0s-.06,0-.09,0c-.03,0-.06,0-.09,0s-.06,0-.09,0c-.03,0-.06,0-.09,0s-.06,0-.09,0c-.03,0-.06,0-.09,0s-.06,0-.09,0c-.03,0-.06,0-.09,0s-.06,0-.09,0c-.03,0-.06,0-.09,0s-.06,0-.09,0c-.03,0-.06,0-.09,0s-.06,0-.09,0c-.03,0-.06,0-.09,0s-.06,0-.09,0c-.03,0-.06,0-.09,0s-.06,0-.09,0c-.03,0-.06,0-.09,0s-.06,0-.09,0c-.03,0-.06,0-.09,0s-.06,0-.09,0c-.03,0-.06,0-.09,0s-.06,0-.09,0c-.03,0-.06,0-.09,0s-.06,0-.09,0c-.03,0-.06,0-.09,0s-.06,0-.09,0c-.03,0-.06,0-.09,0s-.06,0-.09,0c-.03,0-.06,0-.09,0s-.06,0-.09,0c-.03,0-.06,0-.09,0s-.06,0-.09,0c-.03,0-.06,0-.09,0s-.06,0-.09,0c-.03,0-.06,0-.09,0s-.06,0-.09,0c-.03,0-.06,0-.09,0s-.06,0-.09,0c-.03,0-.06,0-.09,0s-.06,0-.09,0c-.03,0-.06,0-.09,0s-.06,0-.09,0c-.03,0-.06,0-.09,0s-.06,0-.09,0c-.03,0-.06,0-.09,0s-.06,0-.09,0c-.03,0-.06,0-.09,0s-.06,0-.09,0c-.03,0-.06,0-.09,0s-.06,0-.09,0c-.03,0-.06,0-.09,0s-.06,0-.09,0c-.03,0-.06,0-.09,0s-.06,0-.09,0c-.03,0-.06,0-.09,0s-.06,0-.09,0c-.03,0-.06,0-.09,0s-.06,0-.09,0c-.03,0-.06,0-.09,0s-.06,0-.09,0c-.03,0-.06,0-.09,0s-.06,0-.09,0c-.03,0-.06,0-.09,0s-.06,0-.09,0c-.03,0-.06,0-.09,0s-.06,0-.09,0c-.03,0-.06,0-.09,0s-.06,0-.09,0c-.03,0-.06,0-.09,0s-.06,0-.09,0c-.03,0-.06,0-.09,0s-.06,0-.09,0c-.03,0-.06,0-.09,0s-.06,0-.09,0c-.03,0-.06,0-.09,0s-.06,0-.09,0c-.03,0-.06,0-.09,0s-.06,0-.09,0c-.03,0-.06,0-.09,0s-.06,0-.09,0c-.03,0-.06,0-.09,0s-.06,0-.09,0c-.03,0-.06,0-.09,0s-.06,0-.09,0c-.03,0-.06,0-.09,0s-.06,0-.09,0c-.03,0-.06,0-.09,0s-.06,0-.09,0c-.03,0-.06,0-.09,0s-.06,0-.09,0c-.03,0-.06,0-.09,0s-.06,0-.09,0c-.03,0-.06,0-.09,0s-.06,0-.09,0c-.03,0-.06,0-.09,0s-.06,0-.09,0c-.03,0-.06,0-.09,0s-.06,0-.09,0c-.03,0-.06,0-.09,0s-.06,0-.09,0c-.03,0-.06,0-.09,0s-.06,0-.09,0c-.03,0-.06,0-.09,0s-.06,0-.09,0c-.03,0-.06,0-.09,0s-.06,0-.09,0c-.03,0-.06,0-.09,0s-.06,0-.09,0c-.03,0-.06,0-.09,0s-.06,0-.09,0c-.03,0-.06,0-.09,0s-.06,0-.09,0c-.03,0-.06,0-.09,0s-.06,0-.09,0c-.03,0-.06,0-.09,0s-.06,0-.09,0c-.03,0-.06,0-.09,0s-.06,0-.09,0c-.03,0-.06,0-.09,0s-.06,0-.09,0c-.03,0-.06,0-.09,0s-.06,0-.09,0c-.03,0-.06,0-.09,0s-.06,0-.09,0c-.03,0-.06,0-.09,0s-.06,0-.09,0c-.03,0-.06,0-.09,0s-.06,0-.09,0c-.03,0-.06,0-.09,0s-.06,0-.09,0c-.03,0-.06,0-.09,0s-.06,0-.09,0c-.03,0-.06,0-.09,0s-.06,0-.09,0c-.03,0-.06,0-.09,0s-.06,0-.09,0c-.03,0-.06,0-.09,0s-.06,0-.09,0c-.03,0-.06,0-.09,0s-.06,0-.09,0c-.03,0-.06,0-.09,0s-.06,0-.09,0c-.03,0-.06,0-.09,0s-.06,0-.09,0c-.03,0-.06,0-.09,0s-.06,0-.09,0c-.03,0-.06,0-.09,0s-.06,0-.09,0c-.03,0-.06,0-.09,0-13.39,0-24.25-14.54-24.25-32.48,0-4.54,.7-8.86,1.95-12.79-26.06,2.67-52.12,5.35-78.18,8.02-.29,32.34-.58,64.68-.87,97.02,4.04,5.2,8.08,10.39,12.12,15.59-7.51,2.31-15.01,4.62-22.52,6.93-6.06-2.02-12.13-4.04-18.19-6.06,4.33-5.2,8.66-10.39,13-15.59-2.6-32.63-5.2-65.26-7.8-97.88-16.75-6.64-33.49-13.28-50.24-19.92-13.86,2.31-27.72,4.62-41.58,6.93-.29,27.14-.57,54.28-.87,81.42,2.89,4.62,5.78,9.24,8.66,13.86-6.64,2.02-13.28,4.04-19.92,6.06-5.2-2.02-10.39-4.05-15.59-6.06,4.62-4.62,9.24-9.24,13.86-13.86-.58-27.43-1.16-54.86-1.74-82.29-8.08-4.33-16.17-8.66-24.25-13-78.53,4.05-157.07,8.08-235.6,12.13-27.14-5.78-54.28-11.55-81.42-17.33-2.88-7.79-5.77-15.59-8.66-23.39,8.95-3.46,17.9-6.93,26.85-10.39h25.69L0,102.69,140.62,0c.12,.26,.24,.51,.35,.77C422.92,78.97,704.86,157.18,986.81,235.38v15.59Zm-56.77,257.89c7.56,.64,14.11-11.83,14.63-27.84,.52-16.01-5.2-29.51-12.75-30.15-7.56-.64-14.11,11.83-14.63,27.84-.51,16.01,5.2,29.51,12.75,30.15Zm-244.42-40.26c-1.03,.11-2.06,.21-3.08,.32,.84,1.56,1.58,3.21,2.2,4.96,.19-1.81,.48-3.58,.88-5.28Zm147.4,2.44c-2.27-3.06-4.95-4.92-7.86-5.16-4-.34-7.76,2.44-10.74,7.31h0c-.07,.12-.14,.23-.2,.34h0c-2.95,4.97-5.11,12.01-5.94,20.09h0c-.01,.12-.03,.23-.03,.34-.15,1.53-.25,3.1-.31,4.7-.61,18.85,6.11,34.74,15.02,35.49,6.58,.55,12.51-7.33,15.4-19.1,1.02-4.14,1.67-8.77,1.82-13.68,.41-12.68-2.5-24.03-7.16-30.32Zm56.09-9.55c-2.13-2.82-4.64-4.54-7.37-4.77-8.46-.72-15.79,13.24-16.37,31.17-.58,17.93,5.81,33.03,14.28,33.74,5.88,.49,11.21-6.09,14.12-16.18h0c1.27-4.43,2.07-9.52,2.25-14.99,.39-12.16-2.43-23.02-6.91-28.98Zm3.85-14.17c.37,.5,.73,1.01,1.09,1.55,.34-.6,.7-1.2,1.06-1.78-.72,.08-1.43,.15-2.15,.22Zm-58.71,6.03c1.07,1.09,2.08,2.31,3.05,3.66,.65-1.46,1.35-2.86,2.09-4.18-1.71,.18-3.43,.35-5.14,.53Zm-86.26,8.85s0,0,0,0c.21,.5,.42,1,.61,1.51,.11-.54,.23-1.08,.36-1.61-.32,.03-.64,.07-.96,.1ZM148.31,25.08C105.37,52.92,62.42,80.76,19.48,108.6c35.95,103.02,71.9,206.04,107.85,309.06,3.51,.18,7.02,.35,10.54,.53,45.08-.38,90.16-.75,135.25-1.13C231.51,286.4,189.91,155.74,148.31,25.08ZM1461.27,310.59c0,8.8,4.51,13.26,13.42,13.26h46.28c8.8,0,13.26-4.46,13.26-13.26v-17.09h-20.85v10.27h-29.87v-81.75c0-8.8-4.46-13.26-13.26-13.26h-18.93v20.09h9.96v81.75Zm82.14,0c0,8.8,4.51,13.26,13.42,13.26h23.91c17.29,0,31.88-5.26,42.19-15.22,10.55-10.19,16.13-24.88,16.13-42.48s-5.58-32.14-16.14-42.28c-10.3-9.89-24.89-15.12-42.18-15.12h-47.28v20.09h9.96v81.75Zm36.25-81.75c23.22,0,36.54,13.6,36.54,37.31s-13.32,37.61-36.54,37.61h-14.02v-74.92h14.02Zm73.16,81.75c0,8.8,4.51,13.26,13.41,13.26h47.97c8.8,0,13.26-4.46,13.26-13.26v-17.09h-20.85v10.27h-31.56v-27.88h38v-20.09h-38v-26.96h27.26v10.27h21.01v-17.09c0-8.8-4.46-13.26-13.26-13.26h-67.2v20.09h9.96v81.75Zm171.41-101.84c-8.9,0-13.42,4.46-13.42,13.26v58.69c0,.34,0,.69,0,1.04-.68-1.05-1.35-2.08-2-3.03l-49.15-69.97h-19.19v95.01h-9.96v20.09h18.93c8.8,0,13.26-4.46,13.26-13.26v-58.69c0-.35,0-.7,0-1.06,.67,1.06,1.35,2.09,2.01,3.05l49.3,69.96h19.04v-95.01h9.96v-20.09h-18.78Zm-302.9,276.86l-19.16-39.46c-1.08-2.15-2.38-3.86-3.62-5.18,12.43-5.22,27.27-19.68,27.72-44.9,.26-14.99-4.38-27.78-13.43-36.98-9.32-9.48-22.49-14.5-38.09-14.5h-75.16l-.46,26.34h15.16l-2.52,144.61h29.61l1.14-65.54h18.61c8.33,0,10.05,.93,13.12,7.1l21.61,44.3c5.79,12,11.77,14.14,25.7,14.14h14.52l.46-26.34h-6.23c-5.46,0-7.41-.5-8.98-3.6Zm-77.43-114.68h27.7c7.68,0,13.7,2.17,17.9,6.44,4.36,4.43,6.58,11.19,6.44,19.52-.29,16.76-9.86,26.77-25.6,26.77h-27.36l.92-52.73Zm214.75-8.33l-1.59,90.97c-.4,22.9-14.22,36.57-36.97,36.57-11.1,0-20.24-3.33-26.44-9.64-6.18-6.29-9.35-15.48-9.15-26.58l1.59-91.2c.11-6.1-1.29-10.55-4.26-13.57-3.01-3.06-7.51-4.55-13.78-4.55h-26.41l-.46,26.34h13.23c.9,0,1.4,.19,1.57,.36,.17,.17,.35,.68,.33,1.58l-1.43,81.87c-.32,18.11,5.47,33.75,16.75,45.22,11.82,12.03,28.53,18.38,48.32,18.38s35.61-6.09,47.71-17.6c12.11-11.52,18.67-27.39,19-45.9l1.43-81.87c.03-1.66,.42-2.05,2.08-2.05h13.12l.46-26.34h-26.75c-12.29,0-18.11,5.72-18.33,18.01Zm154.1,124.55c-.03,1.55-.53,2.04-2.08,2.04h-58.08c-1.96,0-3.71,.03-5.23,.07,2.24-2.56,5.06-5.96,8.03-10.01l83.17-114.52,.58-.8,.34-19.35h-108.63c-12.29,0-18.11,5.72-18.33,18.01l-.42,23.95h27.51l.24-13.58c.03-1.66,.42-2.05,2.08-2.05h52.95c1.89,0,3.58-.04,5.08-.1-2.25,2.61-5.03,6.03-7.88,10.04l-83.17,114.29-.58,.8-.34,19.58h113.76c12.29,0,18.11-5.72,18.33-18.01l.42-23.95h-27.51l-.24,13.58Zm-462.6-140.87h-43.05l-.7,40.24h20.12c6.55,0,10.23,3.74,10.12,10.29l-.58,33.22s-35.81,41.17-94.77,41.17c-67.38,0-118.89-51.47-117.55-128.21,1.28-73.46,55.08-126.34,121.05-126.34,33.34,0,59.36,11.79,74.6,21.02,2.76-9.02,7.64-17.2,14.39-23.9,4.28-4.26,9.15-7.77,14.46-10.46-17.46-12.05-51.88-29.71-103.64-29.71-94.99,0-167.88,74.4-169.53,169.39-1.8,102.94,69.52,172.2,157.95,172.2,65.98,0,103.65-40.24,103.65-40.24h.94s-.59,7.02-.71,14.04c-.06,8.91-.13,17.83-.19,26.74h41.05c.76-46.5,1.53-93.01,2.29-139.51,.36-21.06-8.37-29.95-29.89-29.95Zm97.8-80.75c0-32.87-25.95-58.62-59.08-58.62-16.04,0-30.92,6.01-41.9,16.92-10.98,10.92-17.03,25.73-17.03,41.7,0,33.73,25.88,60.15,58.93,60.15s59.08-26.42,59.08-60.15Zm-59.08,38.84c-20.23,0-36.08-17.06-36.08-38.84s15.85-37.46,36.08-37.46,36.24,16.46,36.24,37.46-15.92,38.84-36.24,38.84Z"/>
</svg>