<?xml version="1.0" encoding="UTF-8"?>
<svg id="_Слой_1" data-name="Слой 1" xmlns="http://www.w3.org/2000/svg" xmlns:xlink="http://www.w3.org/1999/xlink" viewBox="0 0 1290.58 1214.13">
  <defs>
    <style>
      .cls-1 {
        fill: url(#_Безымянный_градиент_164);
      }
    </style>
    <linearGradient id="_Безымянный_градиент_164" data-name="Безымянный градиент 164" x1="0" y1="607.06" x2="1290.58" y2="607.06" gradientUnits="userSpaceOnUse">
      <stop offset=".01" stop-color="#8e3f1c"/>
      <stop offset=".22" stop-color="#ab6325"/>
      <stop offset=".44" stop-color="#c4852e"/>
      <stop offset=".59" stop-color="#d6a647"/>
      <stop offset=".7" stop-color="#b67b2b"/>
      <stop offset=".88" stop-color="#a15f24"/>
      <stop offset="1" stop-color="#84481b"/>
    </linearGradient>
  </defs>
  <path class="cls-1" d="M1227.49,628.68c.47-14.5-4.44-26.83-11.12-28.48,.67-.17,1.37-.24,2.07-.18,7.19,.6,12.62,13.43,12.13,28.66-.49,15.22-6.71,27.07-13.9,26.46-.34-.03-.67-.09-1-.18,6.27-1.57,11.38-12.56,11.82-26.28Zm-148.71-7.2c-.83-.07-1.64,0-2.44,.2,5.14,1.28,9.39,7.91,11.56,17.13,.97,4.09,1.52,8.68,1.56,13.55,.02,.94,0,1.89-.03,2.84-.52,16.17-6.54,29.1-13.92,30.95,.39,.1,.78,.17,1.18,.2,7.11,.6,13.42-9.15,15.59-22.92,.42-2.61,.68-5.38,.77-8.23,.34-10.44-1.69-19.92-5.13-26.17-2.45-4.47-5.61-7.26-9.14-7.56Zm74.01-12.57c-.78-.06-1.56,0-2.32,.2,4.13,1.02,7.64,5.66,9.88,12.35,1.83,5.44,2.81,12.24,2.58,19.53-.04,1.27-.12,2.52-.23,3.73-1.22,13.59-6.57,24.08-13.01,25.7,.37,.08,.74,.16,1.12,.2,6.14,.51,11.65-7.09,14.16-18.31,.77-3.47,1.27-7.29,1.4-11.31,.34-10.62-1.89-20.19-5.57-26.06-2.21-3.56-4.97-5.76-8-6.01Zm137.78-280.68C954.88,243.65,619.18,159.06,283.49,74.48c5.29,17.75,10.57,35.5,15.86,53.24,330.41,79.3,660.82,158.6,991.23,237.9v5.66c-325.5-62.31-651-124.61-976.5-186.92,6.8,22.28,13.59,44.56,20.39,66.84,318.7,52.87,637.41,105.73,956.11,158.6v5.66c-313.42-37.01-626.84-74.01-940.25-111.02,8.31,27.57,16.61,55.13,24.92,82.7,305.11,21.9,610.22,43.8,915.33,65.7v5.66c-299.07-3.4-598.14-6.8-897.21-10.2,6.04,20.77,12.08,41.54,18.13,62.31,293.03-6.8,586.05-13.59,879.08-20.39v30.59c-11.9,.45-23.8,.9-35.7,1.35-17.55,6.34-35.11,12.69-52.66,19.05-3.56,9.4-7.12,18.8-10.68,28.2,.89-.11,1.79-.17,2.7-.17,.62,0,1.24,.03,1.85,.09,.06,0,.12,.02,.18,.02,.06,0,.11,.02,.17,.02,.06,0,.12,0,.18,.02,.06,0,.12,0,.18,.02,.06,0,.11,0,.17,.02,.06,0,.12,0,.18,.02,.06,0,.12,0,.18,.02,.06,0,.11,0,.17,.02,.06,0,.12,0,.18,.02,.06,0,.12,0,.18,0,.06,0,.12,.02,.18,.02,.05,0,.11,.02,.17,.02,.06,0,.12,.02,.18,.02,.06,0,.12,0,.17,.02,.06,0,.12,0,.18,.02,.06,0,.12,0,.18,.02,.06,0,.12,0,.18,.02,.05,0,.11,0,.17,.02,.06,0,.12,0,.18,.02,.06,0,.12,0,.18,.02,.06,0,.11,0,.17,0,.06,0,.12,.02,.18,.02,.06,0,.12,.02,.18,.02,.06,0,.11,.02,.17,.02,.06,0,.12,0,.18,.02,.06,0,.12,0,.18,.02,.06,0,.12,0,.17,.02,.06,0,.12,0,.18,.02,.06,0,.12,0,.18,.02,.06,0,.12,0,.18,.02,.05,0,.11,0,.17,.02,.06,0,.12,0,.18,0,.06,0,.12,.02,.17,.02,.06,0,.12,.02,.18,.02,.06,0,.12,.02,.18,.02,.06,0,.12,0,.18,.02,.06,0,.11,0,.17,.02,.06,0,.12,0,.18,.02,.06,0,.12,0,.18,.02,.06,0,.11,0,.17,.02,.06,0,.12,0,.18,.02,.06,0,.12,0,.18,.02,.06,0,.11,0,.17,0,.06,0,.12,.02,.18,.02,.06,0,.12,.02,.18,.02,.06,0,.12,.02,.17,.02,.06,0,.12,0,.18,.02s.12,0,.18,.02c.06,0,.12,0,.18,.02,.05,0,.11,0,.17,.02,.06,0,.12,0,.18,.02,.06,0,.12,0,.17,.02,.06,0,.12,0,.18,.02,.06,0,.12,0,.18,0,.06,0,.12,.02,.18,.02,.05,0,.11,.02,.17,.02,.06,0,.12,0,.18,.02,.06,0,.12,0,.18,.02,.06,0,.11,0,.17,.02,.06,0,.12,0,.18,.02,.06,0,.12,0,.18,.02,.06,0,.11,0,.17,.02,.06,0,.12,0,.18,.02,.06,0,.12,0,.18,.02,.06,0,.12,0,.17,0,.06,0,.12,.02,.18,.02,.06,0,.12,.02,.18,.02,.06,0,.12,0,.17,.02,.06,0,.12,0,.18,.02,.06,0,.12,0,.18,.02,.06,0,.12,0,.18,.02,.05,0,.11,0,.17,.02,.06,0,.12,0,.18,.02,.06,0,.12,0,.18,.02,.06,0,.11,0,.17,0,.06,0,.12,.02,.18,.02,.06,0,.12,.02,.18,.02,.06,0,.11,.02,.17,.02,.06,0,.12,0,.18,.02,.06,0,.12,0,.18,.02,.06,0,.11,0,.17,.02,.06,0,.12,0,.18,.02,.06,0,.12,0,.18,.02,.06,0,.12,0,.17,.02,.06,0,.12,0,.18,.02,.06,0,.12,0,.18,0,.06,0,.12,.02,.17,.02,.06,0,.12,.02,.18,.02,.06,0,.12,.02,.18,.02,.06,0,.12,0,.18,.02,.05,0,.11,0,.17,.02,.06,0,.12,0,.18,.02,.06,0,.12,0,.18,.02,.05,0,.11,0,.17,.02,.06,0,.12,0,.18,.02,.06,0,.12,0,.18,.02,.06,0,.11,0,.17,0,.06,0,.12,.02,.18,.02,.06,0,.12,.02,.18,.02,.06,0,.12,0,.17,.02,.06,0,.12,0,.18,.02,.06,0,.12,0,.18,.02,.06,0,.12,0,.17,.02,.06,0,.12,0,.18,.02,.06,0,.12,0,.18,.02,.06,0,.12,0,.17,.02,.06,0,.12,0,.18,.02,.06,0,.12,0,.18,0,.06,0,.12,.02,.18,.02,.05,0,.11,.02,.17,.02,.06,0,.12,0,.18,.02,.06,0,.12,0,.18,.02,.05,0,.11,0,.17,.02,.06,0,.12,0,.18,.02,15.07,1.21,27.09,25.41,27.09,55.08s-12.66,55.14-28.27,55.14c-.58,0-1.15-.03-1.71-.1h-.03c-.05,0-.1,0-.15-.02-.06,0-.12,0-.18-.02-.07,0-.13,0-.19-.02-.06,0-.12,0-.18,0-.06,0-.12-.02-.19-.02-.06,0-.12-.02-.18-.02-.06,0-.12,0-.18-.02-.06,0-.12,0-.18-.02-.07,0-.13,0-.19-.02-.06,0-.12,0-.18-.02-.06,0-.12,0-.19-.02-.06,0-.12,0-.18-.02-.06,0-.12,0-.18-.02-.06,0-.12,0-.19-.02-.06,0-.12,0-.18,0-.06,0-.12-.02-.18-.02-.06,0-.12-.02-.19-.02-.06,0-.12,0-.18-.02-.06,0-.12,0-.18-.02-.06,0-.12,0-.19-.02-.06,0-.12,0-.18-.02-.06,0-.12,0-.18-.02-.06,0-.12,0-.19-.02-.06,0-.12,0-.18-.02-.06,0-.12,0-.18-.02-.06,0-.13,0-.19,0-.06,0-.12-.02-.18-.02-.06,0-.12-.02-.18-.02-.06,0-.13-.02-.19-.02-.06,0-.12,0-.18-.02-.06,0-.12,0-.18-.02-.06,0-.13,0-.19-.02-.06,0-.12,0-.18-.02-.06,0-.12,0-.18-.02-.06,0-.13,0-.19-.02-.06,0-.12,0-.18-.02-.06,0-.12,0-.18-.02-.06,0-.13,0-.19,0-.06,0-.12-.02-.18-.02-.06,0-.12-.02-.18-.02-.07,0-.13,0-.19-.02-.06,0-.12,0-.18-.02-.06,0-.12,0-.18-.02-.07,0-.13,0-.19-.02-.06,0-.12,0-.18-.02-.06,0-.12,0-.18-.02-.07,0-.13,0-.19-.02-.06,0-.12,0-.18-.02-.06,0-.12,0-.19,0-.06,0-.12-.02-.18-.02-.06,0-.12-.02-.18-.02-.06,0-.12-.02-.18-.02-.07,0-.13,0-.19-.02-.06,0-.12,0-.18-.02-.06,0-.12,0-.19-.02-.06,0-.12,0-.18-.02-.06,0-.12,0-.18-.02-.06,0-.12,0-.18-.02-.07,0-.13,0-.19-.02-.06,0-.12,0-.18-.02-.06,0-.12,0-.19,0-.06,0-.12-.02-.18-.02-.06,0-.12-.02-.18-.02-.06,0-.12,0-.19-.02-.06,0-.12,0-.18-.02-.06,0-.12,0-.18-.02-.06,0-.13,0-.19-.02-.06,0-.12,0-.18-.02-.06,0-.12,0-.18-.02-.06,0-.13,0-.19-.02-.06,0-.12,0-.18-.02-.06,0-.12,0-.18,0-.06,0-.13-.02-.19-.02-.06,0-.12-.02-.18-.02-.06,0-.12-.02-.18-.02-.06,0-.13,0-.19-.02-.06,0-.12,0-.18-.02-.06,0-.12,0-.18-.02-.06,0-.13,0-.19-.02-.06,0-.12,0-.18-.02-.06,0-.12,0-.18-.02-.06,0-.13,0-.19-.02-.06,0-.12,0-.18,0-.06,0-.12-.02-.18-.02-.07,0-.13-.02-.19-.02-.06,0-.12-.02-.18-.02-.06,0-.12-.02-.18-.02-.07,0-.13,0-.19-.02-.06,0-.12,0-.18-.02-.06,0-.12,0-.18-.02-.07,0-.13,0-.19-.02-.06,0-.12,0-.18-.02-.06,0-.12,0-.18-.02-.07,0-.13,0-.19-.02-.06,0-.12,0-.18,0-.06,0-.12-.02-.19-.02-.06,0-.12-.02-.18-.02-.06,0-.12-.02-.18-.02-.06,0-.12,0-.18-.02-.07,0-.13,0-.19-.02-.06,0-.12,0-.18-.02-.06,0-.12,0-.18-.02-.07,0-.13,0-.19-.02-.06,0-.12,0-.18-.02-.06,0-.12,0-.19-.02-.06,0-.12,0-.18,0-.06,0-.12-.02-.18-.02-.06,0-.12-.02-.19-.02-.06,0-.12-.02-.18-.02-.06,0-.12-.02-.18-.02-.06,0-.12,0-.19-.02-.06,0-.12,0-.18-.02-.06,0-.12,0-.18-.02-.06,0-.12,0-.19-.02-6.01-.47-11.6-3.48-16.37-8.38-5.73,16.65-15.49,27.61-26.55,27.61-.55,0-1.1-.03-1.64-.09-.04,0-.08,0-.1,0-.07,0-.14,0-.2-.02-.07,0-.14,0-.2-.02-.07,0-.14,0-.2-.02-.07,0-.14-.02-.2-.02-.07,0-.14-.02-.2-.03-.07,0-.14,0-.21-.02-.07,0-.14,0-.2-.02-.07,0-.14,0-.2-.02-.07,0-.14,0-.2-.02-.07,0-.14-.02-.2-.02-.07,0-.14-.02-.2-.03-.07,0-.14,0-.2-.02-.07,0-.14,0-.2-.02-.08,0-.14,0-.21-.02s-.14,0-.2-.02c-.07,0-.14-.02-.2-.02-.07,0-.14-.02-.2-.03-.07,0-.14,0-.2-.02-.07,0-.14,0-.2-.02-.07,0-.14,0-.2-.02-.08,0-.14,0-.21-.02-.07,0-.14-.02-.2-.02-.07,0-.14-.02-.2-.03-.07,0-.14,0-.2-.02-.07,0-.14,0-.2-.02-.07,0-.14,0-.2-.02-.07,0-.14,0-.21-.02-.07,0-.14-.02-.2-.02-.07,0-.14-.02-.2-.03-.07,0-.14,0-.2-.02-.07,0-.14,0-.2-.02-.07,0-.14,0-.2-.02-.07,0-.14,0-.2-.02-.07,0-.14-.02-.2-.02-.08,0-.14-.02-.21-.03-.07,0-.14,0-.2-.02-.07,0-.14,0-.2-.02s-.14,0-.2-.02c-.07,0-.14,0-.2-.02-.07,0-.14-.02-.2-.02-.07,0-.14-.02-.21-.03-.07,0-.14,0-.2-.02-.07,0-.14,0-.2-.02-.07,0-.14,0-.2-.02-.07,0-.14,0-.2-.02-.07,0-.14-.02-.2-.02-.07,0-.14-.02-.2-.03-.07,0-.14,0-.21-.02-.07,0-.14,0-.2-.02-.07,0-.14,0-.2-.02-.07,0-.14,0-.2-.02-.07,0-.14-.02-.2-.02-.07,0-.14-.02-.2-.03-.07,0-.14,0-.2-.02-.07,0-.14,0-.2-.02-.08,0-.14,0-.21-.02-.07,0-.14,0-.2-.02-.07,0-.14-.02-.2-.02-.07,0-.14-.02-.2-.02-.07,0-.14-.02-.2-.03-.07,0-.14,0-.2-.02-.07,0-.14,0-.21-.02-.07,0-.14,0-.2-.02-.07,0-.14-.02-.2-.02-.07,0-.14-.02-.2-.02-.07,0-.14-.02-.2-.03-.07,0-.14,0-.2-.02-.07,0-.14,0-.2-.02-.07,0-.14,0-.2-.02-.08,0-.14-.02-.21-.02-.07,0-.14-.02-.2-.02-.07,0-.14-.02-.2-.03-.07,0-.14,0-.2-.02-.07,0-.14,0-.2-.02-.07,0-.14,0-.2-.02-.07,0-.14-.02-.2-.02-.08,0-.14-.02-.21-.02-.07,0-.14-.02-.2-.03-.07,0-.14,0-.2-.02-.07,0-.14,0-.2-.02-.07,0-.14,0-.2-.02-.07,0-.14-.02-.2-.02-.07,0-.14-.02-.21-.02-.07,0-.14-.02-.2-.03-.07,0-.14,0-.2-.02-.07,0-.14,0-.2-.02-.07,0-.14,0-.2-.02-.07,0-.14,0-.2-.02-.07,0-.14-.02-.2-.02-.07,0-.14-.02-.2-.03-.08,0-.14,0-.21-.02-.07,0-.14,0-.2-.02-.07,0-.14,0-.2-.02-.07,0-.14,0-.2-.02-.07,0-.14-.02-.2-.02-.07,0-.14-.02-.2-.03-.07,0-.14,0-.21-.02-.07,0-.14,0-.2-.02-.07,0-.14,0-.2-.02-.07,0-.14,0-.2-.02-.07,0-.14-.02-.2-.02-.07,0-.14-.02-.2-.03-.07,0-.14,0-.2-.02-.07,0-.14,0-.21-.02-.07,0-.14,0-.2-.02-.07,0-.14,0-.2-.02-.07,0-.14-.02-.2-.02-.07,0-.14-.02-.2-.03-.07,0-.14,0-.2-.02-.07,0-.14,0-.2-.02-.07,0-.14,0-.2-.02-.08,0-.14,0-.21-.02-.07,0-.14-.02-.2-.02-.07,0-.14-.02-.2-.02-.07,0-.14-.02-.2-.03-7.32-.58-14.09-4.48-19.78-10.8-5.94,19.33-16.78,32.27-29.18,32.27-.37,0-.75,0-1.11-.04-.03,0-.06,0-.09,0-.25,0-.49-.03-.74-.06-.04,0-.08,0-.12,0-.07,0-.14,0-.22-.02-.07,0-.14-.02-.21-.02-.08,0-.14-.02-.22-.03-.07,0-.14,0-.21-.02-.08,0-.15,0-.22-.02-.08,0-.14-.02-.22-.03-.07,0-.14,0-.21-.02-.08,0-.15,0-.22-.02-.08,0-.14-.02-.22-.02-.07,0-.14-.02-.21-.03-.08,0-.14,0-.22-.02-.08,0-.14-.02-.22-.02-.07,0-.14-.02-.21-.03-.08,0-.14,0-.22-.02-.08,0-.14,0-.22-.02-.07,0-.14-.02-.21-.03-.08,0-.14,0-.22-.02-.07,0-.14,0-.22-.02-.07,0-.14-.02-.21-.02-.08,0-.14-.02-.22-.03-.07,0-.14,0-.21-.02-.08,0-.15-.02-.22-.02-.08,0-.14-.02-.22-.03-.07,0-.14,0-.22-.02-.07,0-.14,0-.21-.02-.08,0-.14-.02-.22-.03-.07,0-.14,0-.21-.02-.08,0-.15,0-.22-.02-.08,0-.14-.02-.22-.02-.07,0-.14-.02-.21-.03-.08,0-.14,0-.22-.02-.08,0-.14-.02-.22-.02-.07,0-.14-.02-.21-.03-.08,0-.14,0-.22-.02-.08,0-.14,0-.22-.02-.07,0-.14-.02-.21-.03-.08,0-.14,0-.22-.02-.08,0-.14,0-.22-.02-.07,0-.14-.02-.21-.02-.08,0-.14-.02-.22-.03-.07,0-.14,0-.22-.02-.07,0-.14-.02-.21-.02-.08,0-.14-.02-.22-.03-.07,0-.14,0-.21-.02-.08,0-.15,0-.22-.02-.08,0-.14-.02-.22-.03-.07,0-.14,0-.22-.02-.07,0-.14,0-.21-.02-.08,0-.14-.02-.22-.02-.07,0-.14-.02-.21-.03-.08,0-.15,0-.22-.02-.08,0-.14-.02-.22-.02-.07,0-.14-.02-.21-.03-.08,0-.14,0-.22-.02-.08,0-.14,0-.22-.02-.07,0-.14-.02-.21-.03-.08,0-.14,0-.22-.02-.08,0-.14,0-.22-.02-.07,0-.14-.02-.21-.02-.08,0-.14-.02-.22-.03-.08,0-.14,0-.22-.02-.07,0-.14-.02-.21-.02-.08,0-.14-.02-.22-.03-.07,0-.14,0-.22-.02-.07,0-.14,0-.21-.02-.08,0-.14-.02-.22-.03-.07,0-.14,0-.22-.02-.07,0-.14,0-.21-.02-.08,0-.14-.02-.22-.02-.07,0-.14-.02-.21-.03-.08,0-.15,0-.22-.02-.08,0-.14-.02-.22-.02-.07,0-.14-.02-.21-.03-.08,0-.15,0-.22-.02-.08,0-.14,0-.22-.02-.07,0-.14-.02-.21-.03-.08,0-.14,0-.22-.02-.08,0-.14,0-.22-.02-.07,0-.14-.02-.21-.02-.08,0-.14-.02-.22-.03-.08,0-.14,0-.22-.02-.07,0-.14-.02-.21-.02-.08,0-.14-.02-.22-.03-.08,0-.14,0-.22-.02-.07,0-.14,0-.21-.02-.08,0-.14-.02-.22-.03-.07,0-.14,0-.22-.02-.07,0-.14,0-.21-.02-.08,0-.14-.02-.22-.02-.07,0-.14-.02-.22-.03-.07,0-.14,0-.21-.02-.08,0-.14-.02-.22-.02-.07,0-.14-.02-.21-.03-.08,0-.15,0-.22-.02-.08,0-.14,0-.22-.02-.07,0-.14-.02-.22-.03-.07,0-.14,0-.21-.02-.08,0-.14,0-.22-.02-.07,0-.14-.02-.21-.02-.08,0-.14-.02-.22-.03-.08,0-.14,0-.22-.02-.07,0-.14-.02-.21-.02-.08,0-.14-.02-.22-.03-.08,0-.14,0-.22-.02-.07,0-.14,0-.21-.02-.08,0-.14-.02-.22-.02-.08,0-.14-.02-.22-.03-.07,0-.14,0-.21-.02-.08,0-.14-.02-.22-.02-.08,0-.14-.02-.22-.03-.07,0-.14,0-.21-.02-.08,0-.14-.02-.22-.02-.07,0-.14-.02-.22-.03-.07,0-.14,0-.21-.02-19.36-1.52-35.18-24.99-38.24-55.43h-.54c-12.38,0-23.09-9.5-28.32-23.34-3.67,18.02-15.98,31.27-30.59,31.27-.04,0-.08,0-.12,0s-.08,0-.12,0-.08,0-.12,0-.08,0-.12,0-.08,0-.12,0-.08,0-.12,0-.08,0-.12,0-.08,0-.12,0-.08,0-.12,0-.08,0-.12,0-.08,0-.12,0-.08,0-.12,0-.08,0-.12,0-.08,0-.12,0-.08,0-.12,0-.08,0-.12,0-.08,0-.12,0-.08,0-.12,0-.08,0-.12,0-.08,0-.12,0-.08,0-.12,0-.08,0-.12,0-.08,0-.12,0-.08,0-.12,0-.08,0-.12,0-.08,0-.12,0-.08,0-.12,0-.08,0-.12,0-.08,0-.12,0-.08,0-.12,0-.08,0-.12,0-.08,0-.12,0-.08,0-.12,0-.08,0-.12,0-.08,0-.12,0-.08,0-.12,0-.08,0-.12,0-.08,0-.12,0-.08,0-.12,0-.08,0-.12,0-.08,0-.12,0-.08,0-.12,0-.08,0-.12,0-.08,0-.12,0-.08,0-.12,0-.08,0-.12,0-.08,0-.12,0-.08,0-.12,0-.08,0-.12,0-.08,0-.12,0-.08,0-.12,0-.08,0-.12,0-.08,0-.12,0-.08,0-.12,0-.08,0-.12,0-.08,0-.12,0-.08,0-.12,0-.08,0-.12,0-.08,0-.12,0-.08,0-.12,0-.08,0-.12,0-.08,0-.12,0-.08,0-.12,0-.08,0-.12,0-.08,0-.12,0-.08,0-.12,0-.08,0-.12,0-.08,0-.12,0-.08,0-.12,0-.08,0-.12,0-.08,0-.12,0-.08,0-.12,0-.08,0-.12,0-.08,0-.12,0-.08,0-.12,0-.08,0-.12,0-.08,0-.12,0-.08,0-.12,0-.08,0-.12,0-.08,0-.12,0-.08,0-.12,0-.08,0-.12,0-.08,0-.12,0-.08,0-.12,0-.08,0-.12,0-.08,0-.12,0-.08,0-.12,0-.08,0-.12,0-.08,0-.12,0-.08,0-.12,0-.08,0-.12,0-.08,0-.12,0-.08,0-.12,0-.08,0-.12,0-.08,0-.12,0-.08,0-.12,0-.08,0-.12,0-.08,0-.12,0-.08,0-.12,0-.08,0-.12,0-.08,0-.12,0-.08,0-.12,0-.08,0-.12,0-.08,0-.12,0-.08,0-.12,0-.08,0-.12,0-.08,0-.12,0-.08,0-.12,0-.08,0-.12,0-.08,0-.12,0-.08,0-.12,0-.08,0-.12,0-.08,0-.12,0-.08,0-.12,0-.08,0-.12,0-.08,0-.12,0-.08,0-.12,0-.08,0-.12,0-.08,0-.12,0-.08,0-.12,0-.08,0-.12,0-.08,0-.12,0-.08,0-.12,0-.08,0-.12,0-.08,0-.12,0-.08,0-.12,0-.08,0-.12,0-.08,0-.12,0-.08,0-.12,0-.08,0-.12,0-.08,0-.12,0-.08,0-.12,0-.08,0-.12,0-.08,0-.12,0-.08,0-.12,0-.08,0-.12,0-.08,0-.12,0-.08,0-.12,0-.08,0-.12,0-.08,0-.12,0-.08,0-.12,0-.08,0-.12,0-.08,0-.12,0-.08,0-.12,0-.08,0-.12,0-.08,0-.12,0-.08,0-.12,0-.08,0-.12,0-.08,0-.12,0-.08,0-.12,0-.08,0-.12,0-.08,0-.12,0-.08,0-.12,0-.08,0-.12,0-.08,0-.12,0-.08,0-.12,0-.08,0-.12,0-.08,0-.12,0-.08,0-.12,0-.08,0-.12,0-.08,0-.12,0-.08,0-.12,0-.08,0-.12,0-.08,0-.12,0-.08,0-.12,0-.08,0-.12,0-.08,0-.12,0-.08,0-.12,0-.08,0-.12,0-.08,0-.12,0-.08,0-.12,0-.08,0-.12,0-.08,0-.12,0-.08,0-.12,0-.08,0-.12,0-.08,0-.12,0-.08,0-.12,0-.08,0-.12,0-.08,0-.12,0-.08,0-.12,0-.08,0-.12,0-.08,0-.12,0-.08,0-.12,0-.08,0-.12,0-.08,0-.12,0-.08,0-.12,0-.08,0-.12,0-.08,0-.12,0-.08,0-.12,0-.08,0-.12,0-.08,0-.12,0-.08,0-.12,0c-12.62,0-23.52-9.88-28.63-24.17-2.13,20.69-15.38,36.63-31.41,36.63-.04,0-.08,0-.12,0s-.08,0-.12,0-.08,0-.12,0-.08,0-.12,0-.08,0-.12,0-.08,0-.12,0-.08,0-.12,0-.08,0-.12,0-.08,0-.12,0-.08,0-.12,0-.08,0-.12,0-.08,0-.12,0-.08,0-.12,0-.08,0-.12,0-.08,0-.12,0-.08,0-.12,0-.08,0-.12,0-.08,0-.12,0-.08,0-.12,0-.08,0-.12,0-.08,0-.12,0-.08,0-.12,0-.08,0-.12,0-.08,0-.12,0-.08,0-.12,0-.08,0-.12,0-.08,0-.12,0-.08,0-.12,0-.08,0-.12,0-.08,0-.12,0-.08,0-.12,0-.08,0-.12,0-.08,0-.12,0-.08,0-.12,0-.08,0-.12,0-.08,0-.12,0-.08,0-.12,0-.08,0-.12,0-.08,0-.12,0-.08,0-.12,0-.08,0-.12,0-.08,0-.12,0-.08,0-.12,0-.08,0-.12,0-.08,0-.12,0-.08,0-.12,0-.08,0-.12,0-.08,0-.12,0-.08,0-.12,0-.08,0-.12,0-.08,0-.12,0-.08,0-.12,0-.08,0-.12,0-.08,0-.12,0-.08,0-.12,0-.08,0-.12,0-.08,0-.12,0-.08,0-.12,0-.08,0-.12,0-.08,0-.12,0-.08,0-.12,0-.08,0-.12,0-.08,0-.12,0-.08,0-.12,0-.08,0-.12,0-.08,0-.12,0-.08,0-.12,0-.08,0-.12,0-.08,0-.12,0-.08,0-.12,0-.08,0-.12,0-.08,0-.12,0-.08,0-.12,0-.08,0-.12,0-.08,0-.12,0-.08,0-.12,0-.08,0-.12,0-.08,0-.12,0-.08,0-.12,0-.08,0-.12,0-.08,0-.12,0-.08,0-.12,0-.08,0-.12,0-.08,0-.12,0-.08,0-.12,0-.08,0-.12,0-.08,0-.12,0-.08,0-.12,0-.08,0-.12,0-.08,0-.12,0-.08,0-.12,0-.08,0-.12,0-.08,0-.12,0-.08,0-.12,0-.08,0-.12,0-.08,0-.12,0-.08,0-.12,0-.08,0-.12,0-.08,0-.12,0-.08,0-.12,0-.08,0-.12,0-.08,0-.12,0-.08,0-.12,0-.08,0-.12,0-.08,0-.12,0-.08,0-.12,0-.08,0-.12,0-.08,0-.12,0-.08,0-.12,0-.08,0-.12,0-.08,0-.12,0-.08,0-.12,0-.08,0-.12,0-.08,0-.12,0-.08,0-.12,0-.08,0-.12,0-.08,0-.12,0-.08,0-.12,0-.08,0-.12,0-.08,0-.12,0-.08,0-.12,0-.08,0-.12,0-.08,0-.12,0-.08,0-.12,0-.08,0-.12,0-.08,0-.12,0-.08,0-.12,0-.08,0-.12,0-.08,0-.12,0-.08,0-.12,0-.08,0-.12,0-.08,0-.12,0-.08,0-.12,0-.08,0-.12,0-.08,0-.12,0-.08,0-.12,0-.08,0-.12,0-.08,0-.12,0-.08,0-.12,0-.08,0-.12,0-.08,0-.12,0-.08,0-.12,0-.08,0-.12,0-.08,0-.12,0-.08,0-.12,0-.08,0-.12,0-.08,0-.12,0-.08,0-.12,0-.08,0-.12,0-.08,0-.12,0-.08,0-.12,0-.08,0-.12,0-.08,0-.12,0-.08,0-.12,0-.08,0-.12,0-.08,0-.12,0-.08,0-.12,0-.08,0-.12,0-.08,0-.12,0-.08,0-.12,0-.08,0-.12,0-.08,0-.12,0-.08,0-.12,0-.08,0-.12,0-.08,0-.12,0-.08,0-.12,0-.08,0-.12,0-.08,0-.12,0-.08,0-.12,0-.08,0-.12,0-.08,0-.12,0-.08,0-.12,0-.08,0-.12,0-.08,0-.12,0-.08,0-.12,0-.08,0-.12,0-.08,0-.12,0-.08,0-.12,0-.08,0-.12,0-.08,0-.12,0-.08,0-.12,0-.08,0-.12,0-.08,0-.12,0-.08,0-.12,0-.08,0-.12,0-.08,0-.12,0-.08,0-.12,0-.08,0-.12,0-.08,0-.12,0-.08,0-.12,0-.08,0-.12,0-.08,0-.12,0c-17.52,0-31.72-19.02-31.72-42.48,0-5.94,.91-11.59,2.56-16.72-34.08,3.5-68.16,7-102.25,10.49-.37,42.29-.76,84.59-1.13,126.88,5.28,6.8,10.57,13.59,15.86,20.39-9.82,3.02-19.63,6.04-29.45,9.06-7.93-2.65-15.86-5.28-23.79-7.93,5.67-6.8,11.33-13.59,17-20.39-3.4-42.68-6.8-85.34-10.2-128.01-21.9-8.68-43.8-17.37-65.7-26.05-18.13,3.02-36.25,6.04-54.38,9.06-.37,35.5-.75,70.99-1.13,106.49,3.78,6.04,7.55,12.08,11.33,18.13-8.68,2.64-17.37,5.28-26.05,7.93-6.8-2.65-13.59-5.29-20.39-7.93,6.04-6.05,12.08-12.09,18.13-18.13-.76-35.88-1.51-71.75-2.27-107.62-10.57-5.66-21.15-11.33-31.72-17-102.7,5.29-205.42,10.57-308.13,15.86-35.5-7.55-70.99-15.11-106.49-22.66-3.77-10.19-7.55-20.39-11.32-30.59,11.7-4.53,23.41-9.06,35.11-13.59h33.6L0,134.3,183.91,0c.15,.33,.31,.67,.46,1,368.73,102.28,737.47,204.56,1106.2,306.84v20.39Zm-74.25,337.27c9.89,.83,18.46-15.47,19.13-36.42,.68-20.94-6.8-38.59-16.68-39.43-9.89-.83-18.46,15.47-19.13,36.42-.67,20.94,6.8,38.59,16.68,39.43Zm-319.66-52.65c-1.34,.14-2.69,.28-4.03,.41,1.1,2.04,2.07,4.2,2.88,6.49,.24-2.37,.63-4.68,1.15-6.9Zm192.78,3.19c-2.97-4-6.47-6.43-10.28-6.75-5.23-.44-10.15,3.19-14.04,9.56h0c-.09,.15-.18,.3-.26,.44h0c-3.86,6.5-6.68,15.7-7.77,26.28h0c-.02,.15-.03,.3-.04,.44-.2,2.01-.33,4.05-.4,6.14-.8,24.65,8,45.43,19.64,46.41,8.61,.72,16.37-9.59,20.13-24.97,1.34-5.42,2.18-11.47,2.38-17.89,.54-16.59-3.27-31.43-9.37-39.66Zm73.36-12.49c-2.79-3.69-6.07-5.94-9.64-6.24-11.07-.94-20.65,17.32-21.41,40.76-.76,23.44,7.6,43.2,18.68,44.13,7.69,.65,14.66-7.97,18.47-21.16h0c1.66-5.79,2.71-12.45,2.94-19.6,.51-15.91-3.17-30.11-9.04-37.9Zm5.04-18.54c.48,.65,.96,1.33,1.42,2.03,.45-.79,.91-1.57,1.39-2.32-.94,.1-1.87,.2-2.81,.29Zm-76.78,7.89c1.39,1.42,2.72,3.02,3.99,4.78,.85-1.91,1.76-3.73,2.73-5.47-2.24,.23-4.48,.46-6.72,.69Zm-112.82,11.58h0c.28,.65,.54,1.31,.8,1.98,.14-.71,.3-1.41,.47-2.11-.42,.04-.84,.09-1.26,.13ZM193.97,32.8c-56.17,36.41-112.33,72.82-168.5,109.23,47.02,134.73,94.03,269.47,141.05,404.2,4.59,.23,9.19,.46,13.78,.69,58.96-.49,117.92-.98,176.88-1.48C302.78,374.56,248.37,203.68,193.97,32.8Zm453.65,966.06c0,9.12,4.68,13.74,13.9,13.74h47.95c9.12,0,13.74-4.62,13.74-13.74v-17.71h-21.61v10.64h-30.95v-84.71c0-9.12-4.62-13.74-13.74-13.74h-19.62v20.81h10.32v84.71Zm85.11,0c0,9.12,4.68,13.74,13.9,13.74h24.77c17.92,0,33.03-5.45,43.71-15.77,10.93-10.56,16.71-25.78,16.71-44.02s-5.78-33.31-16.72-43.81c-10.67-10.25-25.79-15.67-43.7-15.67h-48.99v20.81h10.32v84.71Zm37.56-84.71c24.06,0,37.86,14.09,37.86,38.66s-13.8,38.98-37.86,38.98h-14.52v-77.63h14.52Zm75.81,84.71c0,9.12,4.68,13.74,13.9,13.74h49.7c9.12,0,13.74-4.62,13.74-13.74v-17.71h-21.61v10.64h-32.7v-28.89h39.38v-20.81h-39.38v-27.93h28.25v10.64h21.77v-17.71c0-9.12-4.62-13.74-13.74-13.74h-69.63v20.81h10.32v84.71Zm177.61-105.52c-9.22,0-13.9,4.62-13.9,13.74v60.82c0,.35,0,.71,0,1.08-.7-1.09-1.4-2.15-2.08-3.14l-50.93-72.5h-19.89v98.45h-10.32v20.81h19.62c9.12,0,13.74-4.62,13.74-13.74v-60.82c0-.36,0-.73,0-1.1,.7,1.1,1.4,2.17,2.08,3.16l51.09,72.5h19.73v-98.45h10.32v-20.81h-19.46Zm-313.86,286.87l-19.85-40.89c-1.12-2.23-2.47-4-3.75-5.36,12.88-5.41,28.26-20.39,28.72-46.53,.27-15.53-4.54-28.78-13.91-38.32-9.66-9.83-23.3-15.02-39.46-15.02h-77.88l-.48,27.29h15.71l-2.62,149.85h30.68l1.19-67.91h19.28c8.63,0,10.41,.97,13.59,7.36l22.39,45.91c6,12.44,12.2,14.65,26.63,14.65h15.04l.48-27.29h-6.45c-5.65,0-7.68-.52-9.3-3.73Zm-80.23-118.83h28.71c7.96,0,14.2,2.24,18.55,6.67,4.52,4.6,6.82,11.59,6.67,20.23-.3,17.37-10.22,27.74-26.53,27.74h-28.35l.95-54.64Zm222.52-8.63l-1.64,94.26c-.41,23.73-14.74,37.89-38.31,37.89-11.5,0-20.97-3.46-27.4-9.99-6.4-6.52-9.68-16.04-9.48-27.54l1.65-94.5c.11-6.33-1.33-10.93-4.42-14.07-3.12-3.17-7.79-4.71-14.27-4.71h-27.37l-.48,27.29h13.7c.93,0,1.45,.19,1.63,.37,.18,.18,.36,.7,.34,1.64l-1.48,84.83c-.33,18.77,5.67,34.97,17.35,46.86,12.25,12.46,29.56,19.05,50.07,19.05s36.9-6.31,49.43-18.24c12.54-11.94,19.35-28.39,19.68-47.56l1.48-84.83c.03-1.72,.43-2.12,2.16-2.12h13.59l.48-27.29h-27.72c-12.73,0-18.77,5.93-18.99,18.66Zm159.68,129.06c-.03,1.6-.55,2.12-2.16,2.12h-60.18c-2.03,0-3.84,.03-5.42,.07,2.32-2.66,5.24-6.18,8.33-10.37l86.18-118.67,.6-.83,.35-20.05h-112.56c-12.73,0-18.77,5.93-18.99,18.66l-.43,24.82h28.5l.25-14.07c.03-1.72,.43-2.12,2.16-2.12h54.86c1.96,0,3.71-.04,5.26-.1-2.33,2.7-5.22,6.25-8.16,10.4l-86.18,118.43-.6,.83-.35,20.29h117.87c12.73,0,18.77-5.93,18.99-18.66l.43-24.82h-28.5l-.25,14.07Zm-479.34-145.97h-44.6l-.73,41.69h20.84c6.79,0,10.6,3.88,10.48,10.67l-.61,34.43s-37.11,42.66-98.19,42.66c-69.82,0-123.19-53.33-121.8-132.85,1.33-76.12,57.07-130.91,125.43-130.91,34.54,0,61.5,12.22,77.3,21.78,2.86-9.35,7.92-17.82,14.92-24.77,4.43-4.41,9.48-8.05,14.98-10.84-18.09-12.49-53.75-30.78-107.39-30.78-98.43,0-173.95,77.1-175.67,175.52-1.86,106.67,72.03,178.43,163.67,178.43,68.37,0,107.4-41.7,107.4-41.7h.97s-.61,7.28-.74,14.55c-.07,9.24-.13,18.47-.2,27.71h42.53c.79-48.19,1.58-96.37,2.37-144.56,.38-21.82-8.67-31.03-30.98-31.03Zm101.34-83.67c0-34.06-26.89-60.74-61.22-60.74-16.62,0-32.04,6.23-43.41,17.53-11.38,11.32-17.65,26.66-17.65,43.21,0,34.95,26.82,62.33,61.06,62.33s61.22-27.38,61.22-62.33Zm-61.22,40.25c-20.97,0-37.39-17.68-37.39-40.25s16.42-38.82,37.39-38.82,37.55,17.05,37.55,38.82-16.49,40.25-37.55,40.25Z"/>
</svg>