<?xml version="1.0" encoding="UTF-8"?>
<svg id="_Слой_1" data-name="Слой 1" xmlns="http://www.w3.org/2000/svg" xmlns:xlink="http://www.w3.org/1999/xlink" viewBox="0 0 1685.57 756.61">
  <defs>
    <style>
      .cls-1 {
        fill: url(#_Безымянный_градиент_164);
      }
    </style>
    <linearGradient id="_Безымянный_градиент_164" data-name="Безымянный градиент 164" x1="0" y1="378.31" x2="1685.57" y2="378.31" gradientUnits="userSpaceOnUse">
      <stop offset=".01" stop-color="#8e3f1c"/>
      <stop offset=".22" stop-color="#ab6325"/>
      <stop offset=".44" stop-color="#c4852e"/>
      <stop offset=".59" stop-color="#d6a647"/>
      <stop offset=".7" stop-color="#b67b2b"/>
      <stop offset=".88" stop-color="#a15f24"/>
      <stop offset="1" stop-color="#84481b"/>
    </linearGradient>
  </defs>
  <path class="cls-1" d="M847.72,121.2h-21.86v-44.09h41.55c19.31,0,29.11,9.79,29.11,29.11v179.43h65.56v-22.53h45.77v37.52c0,19.31-9.79,29.11-29.11,29.11h-101.58c-19.54,0-29.44-9.79-29.44-29.11V121.2Zm180.28,0h-21.86v-44.09h103.78c37.95,0,69.96,11.47,92.58,33.18,23.17,22.25,35.42,54.33,35.42,92.79s-12.24,70.87-35.4,93.24c-22.62,21.86-54.64,33.41-92.59,33.41h-52.47c-19.54,0-29.44-9.79-29.44-29.11V121.2Zm48.8,0v164.45h30.76c50.97,0,80.2-30.09,80.2-82.56s-29.23-81.89-80.2-81.89h-30.76Zm191.35,179.43c0,19.31,9.91,29.11,29.44,29.11h105.28c19.32,0,29.11-9.79,29.11-29.11v-37.52h-45.77v22.53h-69.26v-61.19h83.41v-44.09h-83.41v-59.17h59.84v22.54h46.11v-37.52c0-19.31-9.79-29.11-29.11-29.11h-147.5v44.09h21.86v179.43Zm376.22-223.52c-19.54,0-29.45,9.79-29.45,29.11V235.04c0,.75,0,1.51,.02,2.29-1.48-2.31-2.97-4.56-4.4-6.65l-107.88-153.57h-42.13v208.54h-21.86v44.09h41.55c19.31,0,29.11-9.79,29.11-29.11V171.81c0-.76,0-1.54-.02-2.33,1.48,2.32,2.96,4.59,4.4,6.69l108.21,153.56h41.78V121.2h21.86v-44.09h-41.22ZM999.24,692.66h13.67l-1.01,57.81h-31.86c-30.59,0-43.71-4.69-56.42-31.03l-47.44-97.24c-6.74-13.54-10.51-15.58-28.79-15.58h-40.84l-2.51,143.85h-64.98l5.54-317.4h-33.28l1.01-57.81h164.97c34.23,0,63.14,11,83.59,31.81,19.85,20.2,30.05,48.27,29.47,81.17-.97,55.36-33.55,87.1-60.83,98.55,2.72,2.9,5.57,6.65,7.95,11.36l42.05,86.61c3.44,6.79,7.73,7.89,19.7,7.89Zm-191.68-143.85h60.05c34.55,0,55.56-21.97,56.2-58.76,.32-18.3-4.57-33.11-14.13-42.85-9.22-9.38-22.44-14.13-39.29-14.13h-60.8l-2.02,115.74Zm473.37-134.01l-3.48,199.66c-.88,50.26-31.21,80.26-81.15,80.26-24.36,0-44.43-7.32-58.03-21.17-13.57-13.81-20.51-33.98-20.09-58.34l3.49-200.17c.23-13.4-2.83-23.15-9.36-29.79-6.6-6.72-16.49-9.98-30.24-9.98h-57.97l-1.01,57.81h29.03c1.97,0,3.08,.41,3.45,.79,.37,.38,.76,1.49,.72,3.46l-3.14,179.69c-.69,39.76,12.02,74.08,36.76,99.25,25.94,26.4,62.61,40.35,106.05,40.35s78.16-13.36,104.71-38.63c26.57-25.29,40.99-60.13,41.7-100.73l3.14-179.69c.06-3.65,.92-4.49,4.57-4.49h28.79l1.01-57.81h-58.72c-26.97,0-39.76,12.56-40.23,39.54Zm338.23,273.38c-.06,3.4-1.17,4.49-4.57,4.49h-127.48c-4.3,0-8.13,.06-11.49,.15,4.92-5.63,11.1-13.09,17.64-21.97l182.55-251.36,1.28-1.76,.74-42.46h-238.42c-26.97,0-39.76,12.56-40.23,39.54l-.92,52.58h60.37l.52-29.81c.06-3.65,.92-4.49,4.57-4.49h116.21c4.14,0,7.87-.08,11.15-.22-4.95,5.72-11.05,13.23-17.29,22.03l-182.54,250.85-1.28,1.76-.75,42.98h249.68c26.97,0,39.76-12.56,40.23-39.54l.92-52.58h-60.38l-.52,29.81ZM603.82,378.98h-94.48l-1.54,88.32h44.15c14.38,0,22.45,8.22,22.21,22.59l-1.28,72.92s-78.6,90.37-208,90.37c-147.89,0-260.94-112.96-258.01-281.4,2.81-161.24,120.89-277.29,265.7-277.29,73.17,0,130.28,25.89,163.75,46.14,6.05-19.8,16.78-37.74,31.59-52.46,9.39-9.35,20.08-17.05,31.73-22.97C561.32,38.75,485.79,0,372.17,0,163.68,0,3.71,163.31,.07,371.78c-3.94,225.94,152.58,377.94,346.68,377.94,144.82,0,227.49-88.33,227.49-88.33h2.05s-1.3,15.41-1.56,30.82c-.14,19.56-.28,39.12-.42,58.69h90.09c1.68-102.07,3.35-204.13,5.03-306.2,.8-46.22-18.37-65.73-65.61-65.73Zm84.99-45.21c-72.53,0-129.34-57.99-129.34-132.03,0-35.05,13.28-67.56,37.39-91.52,24.09-23.95,56.75-37.14,91.96-37.14,72.71,0,129.68,56.52,129.68,128.67s-56.96,132.03-129.68,132.03Zm79.53-132.03c0-46.11-34.94-82.22-79.53-82.22s-79.2,36.12-79.2,82.22,34.79,85.25,79.2,85.25,79.53-37.45,79.53-85.25Z"/>
</svg>